<svg xmlns="http://www.w3.org/2000/svg" width="39.517" height="21.433" viewBox="0 0 39.517 21.433">
  <path id="Path_28" data-name="Path 28" d="M43.877,21.9H8.866A1.767,1.767,0,0,0,7.1,23.666V38.827a1.767,1.767,0,0,0,1.766,1.766h1.827a3.342,3.342,0,0,0,3.288,2.74,3.382,3.382,0,0,0,3.288-2.74H31.882a3.342,3.342,0,0,0,3.288,2.74,3.382,3.382,0,0,0,3.288-2.74H41.38a1.767,1.767,0,0,0,1.766-1.766V28.05a6.286,6.286,0,0,0-2.5-4.993H44a1.378,1.378,0,0,1,1.4,1.4V28.05a.609.609,0,0,0,1.218,0V24.518A2.7,2.7,0,0,0,43.877,21.9ZM26.889,29.633V23.118h4.932v6.515Zm-12.421,0V23.118H19.4v6.515Zm6.211-6.515H25.61v6.515H20.678Zm-11.812,0H13.25v6.515H8.318V23.666A.546.546,0,0,1,8.866,23.118Zm5.115,19a2.07,2.07,0,0,1,0-4.14,2.092,2.092,0,0,1,2.07,2.07A1.981,1.981,0,0,1,13.98,42.115Zm21.068,0a2.07,2.07,0,0,1,0-4.14,2.092,2.092,0,0,1,2.07,2.07A1.981,1.981,0,0,1,35.048,42.115Zm6.211-2.679H38.336a3.342,3.342,0,0,0-3.288-2.74,3.382,3.382,0,0,0-3.288,2.74H17.268A3.342,3.342,0,0,0,13.98,36.7a3.382,3.382,0,0,0-3.288,2.74H8.866a.546.546,0,0,1-.548-.548V33.834h2.375a.609.609,0,1,0,0-1.218H8.318V30.972H41.807v1.644H38.519a.575.575,0,0,0-.609.609A3.6,3.6,0,0,0,41.5,36.818h.365v2.07A.715.715,0,0,1,41.259,39.436Zm.548-3.958h-.365a2.413,2.413,0,0,1-2.253-1.7h2.557v1.7Zm0-7.368v1.583H33.039V23.118h3.836A4.964,4.964,0,0,1,41.807,28.111Z" transform="translate(-7.1 -21.9)" fill="#2f2d98"/>
</svg>
