<svg xmlns="http://www.w3.org/2000/svg" width="26.02" height="26.02" viewBox="0 0 26.02 26.02">
  <g id="Group_412" data-name="Group 412" transform="translate(-9 -9)">
    <g id="Group_410" data-name="Group 410" transform="translate(9 9)">
      <path id="Path_343" data-name="Path 343" d="M10.859,35.02a1.859,1.859,0,0,1-1.314-3.173l22.3-22.3a1.858,1.858,0,1,1,2.628,2.628l-22.3,22.3A1.853,1.853,0,0,1,10.859,35.02Z" transform="translate(-9 -9)" fill="#2f2d98"/>
    </g>
    <g id="Group_411" data-name="Group 411" transform="translate(9 9)">
      <path id="Path_344" data-name="Path 344" d="M33.161,35.02a1.853,1.853,0,0,1-1.314-.544l-22.3-22.3a1.858,1.858,0,1,1,2.628-2.628l22.3,22.3a1.859,1.859,0,0,1-1.314,3.173Z" transform="translate(-9 -9)" fill="#2f2d98"/>
    </g>
  </g>
</svg>
