<svg id="Group_54" data-name="Group 54" xmlns="http://www.w3.org/2000/svg" xmlns:xlink="http://www.w3.org/1999/xlink" width="38.26" height="38.26" viewBox="0 0 38.26 38.26">
  <defs>
    <clipPath id="clip-path">
      <path id="Path_24" data-name="Path 24" d="M107.794,175.813H92.968A11.73,11.73,0,0,1,81.251,164.1V149.271a11.73,11.73,0,0,1,11.717-11.717h14.825a11.73,11.73,0,0,1,11.717,11.717V164.1A11.73,11.73,0,0,1,107.794,175.813ZM92.968,138.975a10.308,10.308,0,0,0-10.3,10.3V164.1a10.308,10.308,0,0,0,10.3,10.3h14.825a10.308,10.308,0,0,0,10.3-10.3V149.271a10.308,10.308,0,0,0-10.3-10.3Z" transform="translate(-81.251 -137.554)" fill="#fff"/>
    </clipPath>
    <clipPath id="clip-path-2">
      <path id="Path_26" data-name="Path 26" d="M114.022,152.116l-2.978-.066a4.365,4.365,0,0,0-4.462,4.364v2.825h-2.767a.206.206,0,0,0-.206.206v3.55a.206.206,0,0,0,.206.206h2.767v8.981a.206.206,0,0,0,.206.206h3.664a.206.206,0,0,0,.206-.206V163.2h2.79a.206.206,0,0,0,.2-.179l.461-3.55a.206.206,0,0,0-.2-.232h-3.251v-1.795a2.045,2.045,0,0,1,.378-1.369,1.118,1.118,0,0,1,.877-.342h2.105a.206.206,0,0,0,.206-.206v-3.2A.206.206,0,0,0,114.022,152.116Z" transform="translate(-103.609 -152.049)" fill="#fff"/>
    </clipPath>
  </defs>
  <g id="Group_50" data-name="Group 50">
    <g id="Group_49" data-name="Group 49">
      <g id="Group_48" data-name="Group 48">
        <path id="Path_23" data-name="Path 23" d="M107.794,175.813H92.968A11.73,11.73,0,0,1,81.251,164.1V149.271a11.73,11.73,0,0,1,11.717-11.717h14.825a11.73,11.73,0,0,1,11.717,11.717V164.1A11.73,11.73,0,0,1,107.794,175.813ZM92.968,138.975a10.308,10.308,0,0,0-10.3,10.3V164.1a10.308,10.308,0,0,0,10.3,10.3h14.825a10.308,10.308,0,0,0,10.3-10.3V149.271a10.308,10.308,0,0,0-10.3-10.3Z" transform="translate(-81.251 -137.554)" fill="#fff"/>
        <g id="Group_47" data-name="Group 47" clip-path="url(#clip-path)">
          <rect id="Rectangle_1737" data-name="Rectangle 1737" width="0.381" height="35.417" transform="translate(1.421 1.421)" fill="#fff"/>
          <rect id="Rectangle_1738" data-name="Rectangle 1738" width="0.538" height="35.417" transform="translate(1.802 1.421)" fill="#fff"/>
          <rect id="Rectangle_1739" data-name="Rectangle 1739" width="0.538" height="35.417" transform="translate(2.34 1.421)" fill="#fff"/>
          <rect id="Rectangle_1740" data-name="Rectangle 1740" width="0.538" height="35.417" transform="translate(2.879 1.421)" fill="#fff"/>
          <rect id="Rectangle_1741" data-name="Rectangle 1741" width="0.538" height="35.417" transform="translate(3.417 1.421)" fill="#fff"/>
          <rect id="Rectangle_1742" data-name="Rectangle 1742" width="0.538" height="35.417" transform="translate(3.955 1.421)" fill="#fff"/>
          <rect id="Rectangle_1743" data-name="Rectangle 1743" width="0.538" height="35.417" transform="translate(4.493 1.421)" fill="#fff"/>
          <rect id="Rectangle_1744" data-name="Rectangle 1744" width="0.538" height="35.417" transform="translate(5.032 1.421)" fill="#fff"/>
          <rect id="Rectangle_1745" data-name="Rectangle 1745" width="0.538" height="35.417" transform="translate(5.57 1.421)" fill="#fff"/>
          <rect id="Rectangle_1746" data-name="Rectangle 1746" width="0.538" height="35.417" transform="translate(6.108 1.421)" fill="#fff"/>
          <rect id="Rectangle_1747" data-name="Rectangle 1747" width="0.538" height="35.417" transform="translate(6.646 1.421)" fill="#fff"/>
          <rect id="Rectangle_1748" data-name="Rectangle 1748" width="0.538" height="35.417" transform="translate(7.184 1.421)" fill="#fff"/>
          <rect id="Rectangle_1749" data-name="Rectangle 1749" width="0.538" height="35.417" transform="translate(7.723 1.421)" fill="#fff"/>
          <rect id="Rectangle_1750" data-name="Rectangle 1750" width="0.538" height="35.417" transform="translate(8.261 1.421)" fill="#fff"/>
          <rect id="Rectangle_1751" data-name="Rectangle 1751" width="0.538" height="35.417" transform="translate(8.799 1.421)" fill="#fff"/>
          <rect id="Rectangle_1752" data-name="Rectangle 1752" width="0.538" height="35.417" transform="translate(9.337 1.421)" fill="#fff"/>
          <rect id="Rectangle_1753" data-name="Rectangle 1753" width="0.538" height="35.417" transform="translate(9.876 1.421)" fill="#fff"/>
          <rect id="Rectangle_1754" data-name="Rectangle 1754" width="0.538" height="35.417" transform="translate(10.414 1.421)" fill="#fff"/>
          <rect id="Rectangle_1755" data-name="Rectangle 1755" width="0.538" height="35.417" transform="translate(10.952 1.421)" fill="#fff"/>
          <rect id="Rectangle_1756" data-name="Rectangle 1756" width="0.538" height="35.417" transform="translate(11.49 1.421)" fill="#fff"/>
          <rect id="Rectangle_1757" data-name="Rectangle 1757" width="0.538" height="35.417" transform="translate(12.029 1.421)" fill="#fff"/>
          <rect id="Rectangle_1758" data-name="Rectangle 1758" width="0.538" height="35.417" transform="translate(12.567 1.421)" fill="#fff"/>
          <rect id="Rectangle_1759" data-name="Rectangle 1759" width="0.538" height="35.417" transform="translate(13.105 1.421)" fill="#fff"/>
          <rect id="Rectangle_1760" data-name="Rectangle 1760" width="0.538" height="35.417" transform="translate(13.643 1.421)" fill="#fff"/>
          <rect id="Rectangle_1761" data-name="Rectangle 1761" width="0.538" height="35.417" transform="translate(14.182 1.421)" fill="#fff"/>
          <rect id="Rectangle_1762" data-name="Rectangle 1762" width="0.538" height="35.417" transform="translate(14.72 1.421)" fill="#fff"/>
          <rect id="Rectangle_1763" data-name="Rectangle 1763" width="0.538" height="35.417" transform="translate(15.258 1.421)" fill="#fff"/>
          <rect id="Rectangle_1764" data-name="Rectangle 1764" width="0.538" height="35.417" transform="translate(15.796 1.421)" fill="#fff"/>
          <rect id="Rectangle_1765" data-name="Rectangle 1765" width="0.538" height="35.417" transform="translate(16.335 1.421)" fill="#fff"/>
          <rect id="Rectangle_1766" data-name="Rectangle 1766" width="0.538" height="35.417" transform="translate(16.873 1.421)" fill="#fff"/>
          <rect id="Rectangle_1767" data-name="Rectangle 1767" width="0.538" height="35.417" transform="translate(17.411 1.421)" fill="#fff"/>
          <rect id="Rectangle_1768" data-name="Rectangle 1768" width="0.538" height="35.417" transform="translate(17.949 1.421)" fill="#fff"/>
          <rect id="Rectangle_1769" data-name="Rectangle 1769" width="0.538" height="35.417" transform="translate(18.487 1.421)" fill="#fff"/>
          <rect id="Rectangle_1770" data-name="Rectangle 1770" width="0.538" height="35.417" transform="translate(19.026 1.421)" fill="#fff"/>
          <rect id="Rectangle_1771" data-name="Rectangle 1771" width="0.538" height="35.417" transform="translate(19.564 1.421)" fill="#fff"/>
          <rect id="Rectangle_1772" data-name="Rectangle 1772" width="0.538" height="35.417" transform="translate(20.102 1.421)" fill="#fff"/>
          <rect id="Rectangle_1773" data-name="Rectangle 1773" width="0.538" height="35.417" transform="translate(20.64 1.421)" fill="#fff"/>
          <rect id="Rectangle_1774" data-name="Rectangle 1774" width="0.538" height="35.417" transform="translate(21.179 1.421)" fill="#fff"/>
          <rect id="Rectangle_1775" data-name="Rectangle 1775" width="0.538" height="35.417" transform="translate(21.717 1.421)" fill="#fff"/>
          <rect id="Rectangle_1776" data-name="Rectangle 1776" width="0.538" height="35.417" transform="translate(22.255 1.421)" fill="#fff"/>
          <rect id="Rectangle_1777" data-name="Rectangle 1777" width="0.538" height="35.417" transform="translate(22.793 1.421)" fill="#fff"/>
          <rect id="Rectangle_1778" data-name="Rectangle 1778" width="0.538" height="35.417" transform="translate(23.332 1.421)" fill="#fff"/>
          <rect id="Rectangle_1779" data-name="Rectangle 1779" width="0.538" height="35.417" transform="translate(23.87 1.421)" fill="#fff"/>
          <rect id="Rectangle_1780" data-name="Rectangle 1780" width="0.538" height="35.417" transform="translate(24.408 1.421)" fill="#fff"/>
          <rect id="Rectangle_1781" data-name="Rectangle 1781" width="0.538" height="35.417" transform="translate(24.946 1.421)" fill="#fff"/>
          <rect id="Rectangle_1782" data-name="Rectangle 1782" width="0.538" height="35.417" transform="translate(25.485 1.421)" fill="#fff"/>
          <rect id="Rectangle_1783" data-name="Rectangle 1783" width="0.538" height="35.417" transform="translate(26.023 1.421)" fill="#fff"/>
          <rect id="Rectangle_1784" data-name="Rectangle 1784" width="0.538" height="35.417" transform="translate(26.561 1.421)" fill="#fff"/>
          <rect id="Rectangle_1785" data-name="Rectangle 1785" width="0.538" height="35.417" transform="translate(27.099 1.421)" fill="#fff"/>
          <rect id="Rectangle_1786" data-name="Rectangle 1786" width="0.538" height="35.417" transform="translate(27.638 1.421)" fill="#fff"/>
          <rect id="Rectangle_1787" data-name="Rectangle 1787" width="0.538" height="35.417" transform="translate(28.176 1.421)" fill="#fff"/>
          <rect id="Rectangle_1788" data-name="Rectangle 1788" width="0.538" height="35.417" transform="translate(28.714 1.421)" fill="#fff"/>
          <rect id="Rectangle_1789" data-name="Rectangle 1789" width="0.538" height="35.417" transform="translate(29.252 1.421)" fill="#fff"/>
          <rect id="Rectangle_1790" data-name="Rectangle 1790" width="0.538" height="35.417" transform="translate(29.791 1.421)" fill="#fff"/>
          <rect id="Rectangle_1791" data-name="Rectangle 1791" width="0.538" height="35.417" transform="translate(30.329 1.421)" fill="#fff"/>
          <rect id="Rectangle_1792" data-name="Rectangle 1792" width="0.538" height="35.417" transform="translate(30.867 1.421)" fill="#fff"/>
          <rect id="Rectangle_1793" data-name="Rectangle 1793" width="0.538" height="35.417" transform="translate(31.405 1.421)" fill="#fff"/>
          <rect id="Rectangle_1794" data-name="Rectangle 1794" width="0.538" height="35.417" transform="translate(31.943 1.421)" fill="#fff"/>
          <rect id="Rectangle_1795" data-name="Rectangle 1795" width="0.538" height="35.417" transform="translate(32.482 1.421)" fill="#fff"/>
          <rect id="Rectangle_1796" data-name="Rectangle 1796" width="0.538" height="35.417" transform="translate(33.02 1.421)" fill="#fff"/>
          <rect id="Rectangle_1797" data-name="Rectangle 1797" width="0.538" height="35.417" transform="translate(33.558 1.421)" fill="#fff"/>
          <rect id="Rectangle_1798" data-name="Rectangle 1798" width="0.538" height="35.417" transform="translate(34.096 1.421)" fill="#fff"/>
          <rect id="Rectangle_1799" data-name="Rectangle 1799" width="0.538" height="35.417" transform="translate(34.635 1.421)" fill="#fff"/>
          <rect id="Rectangle_1800" data-name="Rectangle 1800" width="0.538" height="35.417" transform="translate(35.173 1.421)" fill="#fff"/>
          <rect id="Rectangle_1801" data-name="Rectangle 1801" width="0.538" height="35.417" transform="translate(35.711 1.421)" fill="#fff"/>
          <rect id="Rectangle_1802" data-name="Rectangle 1802" width="0.538" height="35.417" transform="translate(36.249 1.421)" fill="#fff"/>
          <rect id="Rectangle_1803" data-name="Rectangle 1803" width="0.051" height="35.417" transform="translate(36.788 1.421)" fill="#fff"/>
          <rect id="Rectangle_1804" data-name="Rectangle 1804" width="0.725" height="38.259" transform="translate(0 0)" fill="#fff"/>
          <rect id="Rectangle_1805" data-name="Rectangle 1805" width="0.538" height="38.259" transform="translate(0.726 0)" fill="#fff"/>
          <rect id="Rectangle_1806" data-name="Rectangle 1806" width="0.538" height="38.259" transform="translate(1.264 0)" fill="#fff"/>
          <rect id="Rectangle_1807" data-name="Rectangle 1807" width="0.538" height="38.259" transform="translate(1.802 0)" fill="#fff"/>
          <rect id="Rectangle_1808" data-name="Rectangle 1808" width="0.538" height="38.259" transform="translate(2.34 0)" fill="#fff"/>
          <rect id="Rectangle_1809" data-name="Rectangle 1809" width="0.538" height="38.259" transform="translate(2.879 0)" fill="#fff"/>
          <rect id="Rectangle_1810" data-name="Rectangle 1810" width="0.538" height="38.259" transform="translate(3.417 0)" fill="#fff"/>
          <rect id="Rectangle_1811" data-name="Rectangle 1811" width="0.538" height="38.259" transform="translate(3.955 0)" fill="#fff"/>
          <rect id="Rectangle_1812" data-name="Rectangle 1812" width="0.538" height="38.259" transform="translate(4.493 0)" fill="#fff"/>
          <rect id="Rectangle_1813" data-name="Rectangle 1813" width="0.538" height="38.259" transform="translate(5.032 0)" fill="#fff"/>
          <rect id="Rectangle_1814" data-name="Rectangle 1814" width="0.538" height="38.259" transform="translate(5.57 0)" fill="#fff"/>
          <rect id="Rectangle_1815" data-name="Rectangle 1815" width="0.538" height="38.259" transform="translate(6.108 0)" fill="#fff"/>
          <rect id="Rectangle_1816" data-name="Rectangle 1816" width="0.538" height="38.259" transform="translate(6.646 0)" fill="#fff"/>
          <rect id="Rectangle_1817" data-name="Rectangle 1817" width="0.538" height="38.259" transform="translate(7.184 0)" fill="#fff"/>
          <rect id="Rectangle_1818" data-name="Rectangle 1818" width="0.538" height="38.259" transform="translate(7.723 0)" fill="#fff"/>
          <rect id="Rectangle_1819" data-name="Rectangle 1819" width="0.538" height="38.259" transform="translate(8.261 0)" fill="#fff"/>
          <rect id="Rectangle_1820" data-name="Rectangle 1820" width="0.538" height="38.259" transform="translate(8.799 0)" fill="#fff"/>
          <rect id="Rectangle_1821" data-name="Rectangle 1821" width="0.538" height="38.259" transform="translate(9.337 0)" fill="#fff"/>
          <rect id="Rectangle_1822" data-name="Rectangle 1822" width="0.538" height="38.259" transform="translate(9.876 0)" fill="#fff"/>
          <rect id="Rectangle_1823" data-name="Rectangle 1823" width="0.538" height="38.259" transform="translate(10.414 0)" fill="#fff"/>
          <rect id="Rectangle_1824" data-name="Rectangle 1824" width="0.538" height="38.259" transform="translate(10.952 0)" fill="#fff"/>
          <rect id="Rectangle_1825" data-name="Rectangle 1825" width="0.538" height="38.259" transform="translate(11.49 0)" fill="#fff"/>
          <rect id="Rectangle_1826" data-name="Rectangle 1826" width="0.538" height="38.259" transform="translate(12.029 0)" fill="#fff"/>
          <rect id="Rectangle_1827" data-name="Rectangle 1827" width="0.538" height="38.259" transform="translate(12.567 0)" fill="#fff"/>
          <rect id="Rectangle_1828" data-name="Rectangle 1828" width="0.538" height="38.259" transform="translate(13.105 0)" fill="#fff"/>
          <rect id="Rectangle_1829" data-name="Rectangle 1829" width="0.538" height="38.259" transform="translate(13.643 0)" fill="#fff"/>
          <rect id="Rectangle_1830" data-name="Rectangle 1830" width="0.538" height="38.259" transform="translate(14.182 0)" fill="#fff"/>
          <rect id="Rectangle_1831" data-name="Rectangle 1831" width="0.538" height="38.259" transform="translate(14.72 0)" fill="#fff"/>
          <rect id="Rectangle_1832" data-name="Rectangle 1832" width="0.538" height="38.259" transform="translate(15.258 0)" fill="#fff"/>
          <rect id="Rectangle_1833" data-name="Rectangle 1833" width="0.538" height="38.259" transform="translate(15.796 0)" fill="#fff"/>
          <rect id="Rectangle_1834" data-name="Rectangle 1834" width="0.538" height="38.259" transform="translate(16.335 0)" fill="#fff"/>
          <rect id="Rectangle_1835" data-name="Rectangle 1835" width="0.538" height="38.259" transform="translate(16.873 0)" fill="#fff"/>
          <rect id="Rectangle_1836" data-name="Rectangle 1836" width="0.538" height="38.259" transform="translate(17.411 0)" fill="#fff"/>
          <rect id="Rectangle_1837" data-name="Rectangle 1837" width="0.538" height="38.259" transform="translate(17.949 0)" fill="#fff"/>
          <rect id="Rectangle_1838" data-name="Rectangle 1838" width="0.538" height="38.259" transform="translate(18.487 0)" fill="#fff"/>
          <rect id="Rectangle_1839" data-name="Rectangle 1839" width="0.538" height="38.259" transform="translate(19.026 0)" fill="#fff"/>
          <rect id="Rectangle_1840" data-name="Rectangle 1840" width="0.538" height="38.259" transform="translate(19.564 0)" fill="#fff"/>
          <rect id="Rectangle_1841" data-name="Rectangle 1841" width="0.538" height="38.259" transform="translate(20.102 0)" fill="#fff"/>
          <rect id="Rectangle_1842" data-name="Rectangle 1842" width="0.538" height="38.259" transform="translate(20.64 0)" fill="#fff"/>
          <rect id="Rectangle_1843" data-name="Rectangle 1843" width="0.538" height="38.259" transform="translate(21.179 0)" fill="#fff"/>
          <rect id="Rectangle_1844" data-name="Rectangle 1844" width="0.538" height="38.259" transform="translate(21.717 0)" fill="#fff"/>
          <rect id="Rectangle_1845" data-name="Rectangle 1845" width="0.538" height="38.259" transform="translate(22.255 0)" fill="#fff"/>
          <rect id="Rectangle_1846" data-name="Rectangle 1846" width="0.538" height="38.259" transform="translate(22.793 0)" fill="#fff"/>
          <rect id="Rectangle_1847" data-name="Rectangle 1847" width="0.538" height="38.259" transform="translate(23.332 0)" fill="#fff"/>
          <rect id="Rectangle_1848" data-name="Rectangle 1848" width="0.538" height="38.259" transform="translate(23.87 0)" fill="#fff"/>
          <rect id="Rectangle_1849" data-name="Rectangle 1849" width="0.538" height="38.259" transform="translate(24.408 0)" fill="#fff"/>
          <rect id="Rectangle_1850" data-name="Rectangle 1850" width="0.538" height="38.259" transform="translate(24.946 0)" fill="#fff"/>
          <rect id="Rectangle_1851" data-name="Rectangle 1851" width="0.538" height="38.259" transform="translate(25.485 0)" fill="#fff"/>
          <rect id="Rectangle_1852" data-name="Rectangle 1852" width="0.538" height="38.259" transform="translate(26.023 0)" fill="#fff"/>
          <rect id="Rectangle_1853" data-name="Rectangle 1853" width="0.538" height="38.259" transform="translate(26.561 0)" fill="#fff"/>
          <rect id="Rectangle_1854" data-name="Rectangle 1854" width="0.538" height="38.259" transform="translate(27.099 0)" fill="#fff"/>
          <rect id="Rectangle_1855" data-name="Rectangle 1855" width="0.538" height="38.259" transform="translate(27.638 0)" fill="#fff"/>
          <rect id="Rectangle_1856" data-name="Rectangle 1856" width="0.538" height="38.259" transform="translate(28.176 0)" fill="#fff"/>
          <rect id="Rectangle_1857" data-name="Rectangle 1857" width="0.538" height="38.259" transform="translate(28.714 0)" fill="#fff"/>
          <rect id="Rectangle_1858" data-name="Rectangle 1858" width="0.538" height="38.259" transform="translate(29.252 0)" fill="#fff"/>
          <rect id="Rectangle_1859" data-name="Rectangle 1859" width="0.538" height="38.259" transform="translate(29.791 0)" fill="#fff"/>
          <rect id="Rectangle_1860" data-name="Rectangle 1860" width="0.538" height="38.259" transform="translate(30.329 0)" fill="#fff"/>
          <rect id="Rectangle_1861" data-name="Rectangle 1861" width="0.538" height="38.259" transform="translate(30.867 0)" fill="#fff"/>
          <rect id="Rectangle_1862" data-name="Rectangle 1862" width="0.538" height="38.259" transform="translate(31.405 0)" fill="#fff"/>
          <rect id="Rectangle_1863" data-name="Rectangle 1863" width="0.538" height="38.259" transform="translate(31.943 0)" fill="#fff"/>
          <rect id="Rectangle_1864" data-name="Rectangle 1864" width="0.538" height="38.259" transform="translate(32.482 0)" fill="#fff"/>
          <rect id="Rectangle_1865" data-name="Rectangle 1865" width="0.538" height="38.259" transform="translate(33.02 0)" fill="#fff"/>
          <rect id="Rectangle_1866" data-name="Rectangle 1866" width="0.538" height="38.259" transform="translate(33.558 0)" fill="#fff"/>
          <rect id="Rectangle_1867" data-name="Rectangle 1867" width="0.538" height="38.259" transform="translate(34.096 0)" fill="#fff"/>
          <rect id="Rectangle_1868" data-name="Rectangle 1868" width="0.538" height="38.259" transform="translate(34.635 0)" fill="#fff"/>
          <rect id="Rectangle_1869" data-name="Rectangle 1869" width="0.538" height="38.259" transform="translate(35.173 0)" fill="#fff"/>
          <rect id="Rectangle_1870" data-name="Rectangle 1870" width="0.538" height="38.259" transform="translate(35.711 0)" fill="#fff"/>
          <rect id="Rectangle_1871" data-name="Rectangle 1871" width="0.538" height="38.259" transform="translate(36.249 0)" fill="#fff"/>
          <rect id="Rectangle_1872" data-name="Rectangle 1872" width="0.538" height="38.259" transform="translate(36.788 0)" fill="#fff"/>
          <rect id="Rectangle_1873" data-name="Rectangle 1873" width="0.538" height="38.259" transform="translate(37.326 0)" fill="#fff"/>
          <rect id="Rectangle_1874" data-name="Rectangle 1874" width="0.395" height="38.259" transform="translate(37.864 0)" fill="#fff"/>
        </g>
      </g>
    </g>
  </g>
  <g id="Group_53" data-name="Group 53" transform="translate(13.823 8.961)">
    <g id="Group_52" data-name="Group 52">
      <path id="Path_25" data-name="Path 25" d="M114.022,152.116l-2.978-.066a4.365,4.365,0,0,0-4.462,4.364v2.825h-2.767a.206.206,0,0,0-.206.206v3.55a.206.206,0,0,0,.206.206h2.767v8.981a.206.206,0,0,0,.206.206h3.664a.206.206,0,0,0,.206-.206V163.2h2.79a.206.206,0,0,0,.2-.179l.461-3.55a.206.206,0,0,0-.2-.232h-3.251v-1.795a2.045,2.045,0,0,1,.378-1.369,1.118,1.118,0,0,1,.877-.342h2.105a.206.206,0,0,0,.206-.206v-3.2A.206.206,0,0,0,114.022,152.116Z" transform="translate(-103.609 -152.049)" fill="#fff"/>
      <g id="Group_51" data-name="Group 51" clip-path="url(#clip-path-2)">
        <rect id="Rectangle_1875" data-name="Rectangle 1875" width="0.04" height="20.359" transform="translate(0 -0.022)" fill="#fff"/>
        <rect id="Rectangle_1876" data-name="Rectangle 1876" width="0.339" height="20.359" transform="translate(0.04 -0.022)" fill="#fff"/>
        <rect id="Rectangle_1877" data-name="Rectangle 1877" width="0.339" height="20.359" transform="translate(0.379 -0.022)" fill="#fff"/>
        <rect id="Rectangle_1878" data-name="Rectangle 1878" width="0.339" height="20.359" transform="translate(0.718 -0.022)" fill="#fff"/>
        <rect id="Rectangle_1879" data-name="Rectangle 1879" width="0.339" height="20.359" transform="translate(1.056 -0.022)" fill="#fff"/>
        <rect id="Rectangle_1880" data-name="Rectangle 1880" width="0.339" height="20.359" transform="translate(1.395 -0.022)" fill="#fff"/>
        <rect id="Rectangle_1881" data-name="Rectangle 1881" width="0.339" height="20.359" transform="translate(1.734 -0.022)" fill="#fff"/>
        <rect id="Rectangle_1882" data-name="Rectangle 1882" width="0.339" height="20.359" transform="translate(2.073 -0.022)" fill="#fff"/>
        <rect id="Rectangle_1883" data-name="Rectangle 1883" width="0.339" height="20.359" transform="translate(2.411 -0.022)" fill="#fff"/>
        <rect id="Rectangle_1884" data-name="Rectangle 1884" width="0.339" height="20.359" transform="translate(2.75 -0.022)" fill="#fff"/>
        <rect id="Rectangle_1885" data-name="Rectangle 1885" width="0.339" height="20.359" transform="translate(3.089 -0.022)" fill="#fff"/>
        <rect id="Rectangle_1886" data-name="Rectangle 1886" width="0.339" height="20.359" transform="translate(3.428 -0.022)" fill="#fff"/>
        <rect id="Rectangle_1887" data-name="Rectangle 1887" width="0.339" height="20.359" transform="translate(3.767 -0.022)" fill="#fff"/>
        <rect id="Rectangle_1888" data-name="Rectangle 1888" width="0.339" height="20.359" transform="translate(4.105 -0.022)" fill="#fff"/>
        <rect id="Rectangle_1889" data-name="Rectangle 1889" width="0.339" height="20.359" transform="translate(4.444 -0.022)" fill="#fff"/>
        <rect id="Rectangle_1890" data-name="Rectangle 1890" width="0.339" height="20.359" transform="translate(4.783 -0.022)" fill="#fff"/>
        <rect id="Rectangle_1891" data-name="Rectangle 1891" width="0.339" height="20.359" transform="translate(5.122 -0.022)" fill="#fff"/>
        <rect id="Rectangle_1892" data-name="Rectangle 1892" width="0.339" height="20.359" transform="translate(5.46 -0.022)" fill="#fff"/>
        <rect id="Rectangle_1893" data-name="Rectangle 1893" width="0.339" height="20.359" transform="translate(5.799 -0.022)" fill="#fff"/>
        <rect id="Rectangle_1894" data-name="Rectangle 1894" width="0.339" height="20.359" transform="translate(6.138 -0.022)" fill="#fff"/>
        <rect id="Rectangle_1895" data-name="Rectangle 1895" width="0.339" height="20.359" transform="translate(6.477 -0.022)" fill="#fff"/>
        <rect id="Rectangle_1896" data-name="Rectangle 1896" width="0.339" height="20.359" transform="translate(6.816 -0.022)" fill="#fff"/>
        <rect id="Rectangle_1897" data-name="Rectangle 1897" width="0.339" height="20.359" transform="translate(7.154 -0.022)" fill="#fff"/>
        <rect id="Rectangle_1898" data-name="Rectangle 1898" width="0.339" height="20.359" transform="translate(7.493 -0.022)" fill="#fff"/>
        <rect id="Rectangle_1899" data-name="Rectangle 1899" width="0.339" height="20.359" transform="translate(7.832 -0.022)" fill="#fff"/>
        <rect id="Rectangle_1900" data-name="Rectangle 1900" width="0.339" height="20.359" transform="translate(8.171 -0.022)" fill="#fff"/>
        <rect id="Rectangle_1901" data-name="Rectangle 1901" width="0.339" height="20.359" transform="translate(8.509 -0.022)" fill="#fff"/>
        <rect id="Rectangle_1902" data-name="Rectangle 1902" width="0.339" height="20.359" transform="translate(8.848 -0.022)" fill="#fff"/>
        <rect id="Rectangle_1903" data-name="Rectangle 1903" width="0.339" height="20.359" transform="translate(9.187 -0.022)" fill="#fff"/>
        <rect id="Rectangle_1904" data-name="Rectangle 1904" width="0.339" height="20.359" transform="translate(9.526 -0.022)" fill="#fff"/>
        <rect id="Rectangle_1905" data-name="Rectangle 1905" width="0.339" height="20.359" transform="translate(9.865 -0.022)" fill="#fff"/>
        <rect id="Rectangle_1906" data-name="Rectangle 1906" width="0.339" height="20.359" transform="translate(10.203 -0.022)" fill="#fff"/>
        <rect id="Rectangle_1907" data-name="Rectangle 1907" width="0.072" height="20.359" transform="translate(10.542 -0.022)" fill="#fff"/>
      </g>
    </g>
  </g>
</svg>
