<svg id="Group_46" data-name="Group 46" xmlns="http://www.w3.org/2000/svg" xmlns:xlink="http://www.w3.org/1999/xlink" width="38.259" height="38.26" viewBox="0 0 38.259 38.26">
  <defs>
    <clipPath id="clip-path">
      <path id="Path_18" data-name="Path 18" d="M435.208,175.813H420.383A11.73,11.73,0,0,1,408.666,164.1V149.271a11.73,11.73,0,0,1,11.717-11.717h14.825a11.73,11.73,0,0,1,11.717,11.717V164.1A11.73,11.73,0,0,1,435.208,175.813Zm-14.825-36.838a10.308,10.308,0,0,0-10.3,10.3V164.1a10.308,10.308,0,0,0,10.3,10.3h14.825a10.308,10.308,0,0,0,10.3-10.3V149.271a10.308,10.308,0,0,0-10.3-10.3Z" transform="translate(-408.666 -137.554)" fill="#fff"/>
    </clipPath>
    <clipPath id="clip-path-2">
      <rect id="Rectangle_1701" data-name="Rectangle 1701" width="2.795" height="9.583" fill="#fff"/>
    </clipPath>
    <clipPath id="clip-path-3">
      <path id="Path_20" data-name="Path 20" d="M429.869,157.362a1.531,1.531,0,1,0,1.531,1.531A1.531,1.531,0,0,0,429.869,157.362Z" transform="translate(-428.338 -157.362)" fill="#fff"/>
    </clipPath>
    <clipPath id="clip-path-4">
      <path id="Path_22" data-name="Path 22" d="M442.929,163.928a3.747,3.747,0,0,0-3.979,1.021h0l-.343-1.264h-2.562v9.858h3V167.7a1.581,1.581,0,0,1,1.581-1.581h0A1.581,1.581,0,0,1,442.2,167.7v5.848h3v-4.929S445.533,164.662,442.929,163.928Z" transform="translate(-436.044 -163.686)" fill="#fff"/>
    </clipPath>
  </defs>
  <g id="Group_35" data-name="Group 35">
    <g id="Group_34" data-name="Group 34">
      <g id="Group_33" data-name="Group 33">
        <path id="Path_17" data-name="Path 17" d="M435.208,175.813H420.383A11.73,11.73,0,0,1,408.666,164.1V149.271a11.73,11.73,0,0,1,11.717-11.717h14.825a11.73,11.73,0,0,1,11.717,11.717V164.1A11.73,11.73,0,0,1,435.208,175.813Zm-14.825-36.838a10.308,10.308,0,0,0-10.3,10.3V164.1a10.308,10.308,0,0,0,10.3,10.3h14.825a10.308,10.308,0,0,0,10.3-10.3V149.271a10.308,10.308,0,0,0-10.3-10.3Z" transform="translate(-408.666 -137.554)" fill="#fff"/>
        <g id="Group_32" data-name="Group 32" clip-path="url(#clip-path)">
          <rect id="Rectangle_1495" data-name="Rectangle 1495" width="0.256" height="35.417" transform="translate(1.421 1.421)" fill="#fff"/>
          <rect id="Rectangle_1496" data-name="Rectangle 1496" width="0.402" height="35.417" transform="translate(1.677 1.421)" fill="#fff"/>
          <rect id="Rectangle_1497" data-name="Rectangle 1497" width="0.402" height="35.417" transform="translate(2.079 1.421)" fill="#fff"/>
          <rect id="Rectangle_1498" data-name="Rectangle 1498" width="0.402" height="35.417" transform="translate(2.481 1.421)" fill="#fff"/>
          <rect id="Rectangle_1499" data-name="Rectangle 1499" width="0.402" height="35.417" transform="translate(2.884 1.421)" fill="#fff"/>
          <rect id="Rectangle_1500" data-name="Rectangle 1500" width="0.402" height="35.417" transform="translate(3.286 1.421)" fill="#fff"/>
          <rect id="Rectangle_1501" data-name="Rectangle 1501" width="0.402" height="35.417" transform="translate(3.688 1.421)" fill="#fff"/>
          <rect id="Rectangle_1502" data-name="Rectangle 1502" width="0.402" height="35.417" transform="translate(4.09 1.421)" fill="#fff"/>
          <rect id="Rectangle_1503" data-name="Rectangle 1503" width="0.402" height="35.417" transform="translate(4.492 1.421)" fill="#fff"/>
          <rect id="Rectangle_1504" data-name="Rectangle 1504" width="0.402" height="35.417" transform="translate(4.894 1.421)" fill="#fff"/>
          <rect id="Rectangle_1505" data-name="Rectangle 1505" width="0.402" height="35.417" transform="translate(5.296 1.421)" fill="#fff"/>
          <rect id="Rectangle_1506" data-name="Rectangle 1506" width="0.402" height="35.417" transform="translate(5.698 1.421)" fill="#fff"/>
          <rect id="Rectangle_1507" data-name="Rectangle 1507" width="0.402" height="35.417" transform="translate(6.1 1.421)" fill="#fff"/>
          <rect id="Rectangle_1508" data-name="Rectangle 1508" width="0.402" height="35.417" transform="translate(6.502 1.421)" fill="#fff"/>
          <rect id="Rectangle_1509" data-name="Rectangle 1509" width="0.402" height="35.417" transform="translate(6.905 1.421)" fill="#fff"/>
          <rect id="Rectangle_1510" data-name="Rectangle 1510" width="0.402" height="35.417" transform="translate(7.307 1.421)" fill="#fff"/>
          <rect id="Rectangle_1511" data-name="Rectangle 1511" width="0.402" height="35.417" transform="translate(7.709 1.421)" fill="#fff"/>
          <rect id="Rectangle_1512" data-name="Rectangle 1512" width="0.402" height="35.417" transform="translate(8.111 1.421)" fill="#fff"/>
          <rect id="Rectangle_1513" data-name="Rectangle 1513" width="0.402" height="35.417" transform="translate(8.513 1.421)" fill="#fff"/>
          <rect id="Rectangle_1514" data-name="Rectangle 1514" width="0.402" height="35.417" transform="translate(8.915 1.421)" fill="#fff"/>
          <rect id="Rectangle_1515" data-name="Rectangle 1515" width="0.402" height="35.417" transform="translate(9.317 1.421)" fill="#fff"/>
          <rect id="Rectangle_1516" data-name="Rectangle 1516" width="0.402" height="35.417" transform="translate(9.719 1.421)" fill="#fff"/>
          <rect id="Rectangle_1517" data-name="Rectangle 1517" width="0.402" height="35.417" transform="translate(10.121 1.421)" fill="#fff"/>
          <rect id="Rectangle_1518" data-name="Rectangle 1518" width="0.402" height="35.417" transform="translate(10.524 1.421)" fill="#fff"/>
          <rect id="Rectangle_1519" data-name="Rectangle 1519" width="0.402" height="35.417" transform="translate(10.926 1.421)" fill="#fff"/>
          <rect id="Rectangle_1520" data-name="Rectangle 1520" width="0.402" height="35.417" transform="translate(11.328 1.421)" fill="#fff"/>
          <rect id="Rectangle_1521" data-name="Rectangle 1521" width="0.402" height="35.417" transform="translate(11.73 1.421)" fill="#fff"/>
          <rect id="Rectangle_1522" data-name="Rectangle 1522" width="0.402" height="35.417" transform="translate(12.132 1.421)" fill="#fff"/>
          <rect id="Rectangle_1523" data-name="Rectangle 1523" width="0.402" height="35.417" transform="translate(12.534 1.421)" fill="#fff"/>
          <rect id="Rectangle_1524" data-name="Rectangle 1524" width="0.402" height="35.417" transform="translate(12.936 1.421)" fill="#fff"/>
          <rect id="Rectangle_1525" data-name="Rectangle 1525" width="0.402" height="35.417" transform="translate(13.338 1.421)" fill="#fff"/>
          <rect id="Rectangle_1526" data-name="Rectangle 1526" width="0.402" height="35.417" transform="translate(13.74 1.421)" fill="#fff"/>
          <rect id="Rectangle_1527" data-name="Rectangle 1527" width="0.402" height="35.417" transform="translate(14.142 1.421)" fill="#fff"/>
          <rect id="Rectangle_1528" data-name="Rectangle 1528" width="0.402" height="35.417" transform="translate(14.545 1.421)" fill="#fff"/>
          <rect id="Rectangle_1529" data-name="Rectangle 1529" width="0.402" height="35.417" transform="translate(14.947 1.421)" fill="#fff"/>
          <rect id="Rectangle_1530" data-name="Rectangle 1530" width="0.402" height="35.417" transform="translate(15.349 1.421)" fill="#fff"/>
          <rect id="Rectangle_1531" data-name="Rectangle 1531" width="0.402" height="35.417" transform="translate(15.751 1.421)" fill="#fff"/>
          <rect id="Rectangle_1532" data-name="Rectangle 1532" width="0.402" height="35.417" transform="translate(16.153 1.421)" fill="#fff"/>
          <rect id="Rectangle_1533" data-name="Rectangle 1533" width="0.402" height="35.417" transform="translate(16.555 1.421)" fill="#fff"/>
          <rect id="Rectangle_1534" data-name="Rectangle 1534" width="0.402" height="35.417" transform="translate(16.957 1.421)" fill="#fff"/>
          <rect id="Rectangle_1535" data-name="Rectangle 1535" width="0.402" height="35.417" transform="translate(17.359 1.421)" fill="#fff"/>
          <rect id="Rectangle_1536" data-name="Rectangle 1536" width="0.402" height="35.417" transform="translate(17.761 1.421)" fill="#fff"/>
          <rect id="Rectangle_1537" data-name="Rectangle 1537" width="0.402" height="35.417" transform="translate(18.164 1.421)" fill="#fff"/>
          <rect id="Rectangle_1538" data-name="Rectangle 1538" width="0.402" height="35.417" transform="translate(18.566 1.421)" fill="#fff"/>
          <rect id="Rectangle_1539" data-name="Rectangle 1539" width="0.402" height="35.417" transform="translate(18.968 1.421)" fill="#fff"/>
          <rect id="Rectangle_1540" data-name="Rectangle 1540" width="0.402" height="35.417" transform="translate(19.37 1.421)" fill="#fff"/>
          <rect id="Rectangle_1541" data-name="Rectangle 1541" width="0.402" height="35.417" transform="translate(19.772 1.421)" fill="#fff"/>
          <rect id="Rectangle_1542" data-name="Rectangle 1542" width="0.402" height="35.417" transform="translate(20.174 1.421)" fill="#fff"/>
          <rect id="Rectangle_1543" data-name="Rectangle 1543" width="0.402" height="35.417" transform="translate(20.576 1.421)" fill="#fff"/>
          <rect id="Rectangle_1544" data-name="Rectangle 1544" width="0.402" height="35.417" transform="translate(20.978 1.421)" fill="#fff"/>
          <rect id="Rectangle_1545" data-name="Rectangle 1545" width="0.402" height="35.417" transform="translate(21.38 1.421)" fill="#fff"/>
          <rect id="Rectangle_1546" data-name="Rectangle 1546" width="0.402" height="35.417" transform="translate(21.782 1.421)" fill="#fff"/>
          <rect id="Rectangle_1547" data-name="Rectangle 1547" width="0.402" height="35.417" transform="translate(22.185 1.421)" fill="#fff"/>
          <rect id="Rectangle_1548" data-name="Rectangle 1548" width="0.402" height="35.417" transform="translate(22.587 1.421)" fill="#fff"/>
          <rect id="Rectangle_1549" data-name="Rectangle 1549" width="0.402" height="35.417" transform="translate(22.989 1.421)" fill="#fff"/>
          <rect id="Rectangle_1550" data-name="Rectangle 1550" width="0.402" height="35.417" transform="translate(23.391 1.421)" fill="#fff"/>
          <rect id="Rectangle_1551" data-name="Rectangle 1551" width="0.402" height="35.417" transform="translate(23.793 1.421)" fill="#fff"/>
          <rect id="Rectangle_1552" data-name="Rectangle 1552" width="0.402" height="35.417" transform="translate(24.195 1.421)" fill="#fff"/>
          <rect id="Rectangle_1553" data-name="Rectangle 1553" width="0.402" height="35.417" transform="translate(24.597 1.421)" fill="#fff"/>
          <rect id="Rectangle_1554" data-name="Rectangle 1554" width="0.402" height="35.417" transform="translate(24.999 1.421)" fill="#fff"/>
          <rect id="Rectangle_1555" data-name="Rectangle 1555" width="0.402" height="35.417" transform="translate(25.401 1.421)" fill="#fff"/>
          <rect id="Rectangle_1556" data-name="Rectangle 1556" width="0.402" height="35.417" transform="translate(25.804 1.421)" fill="#fff"/>
          <rect id="Rectangle_1557" data-name="Rectangle 1557" width="0.402" height="35.417" transform="translate(26.206 1.421)" fill="#fff"/>
          <rect id="Rectangle_1558" data-name="Rectangle 1558" width="0.402" height="35.417" transform="translate(26.608 1.421)" fill="#fff"/>
          <rect id="Rectangle_1559" data-name="Rectangle 1559" width="0.402" height="35.417" transform="translate(27.01 1.421)" fill="#fff"/>
          <rect id="Rectangle_1560" data-name="Rectangle 1560" width="0.402" height="35.417" transform="translate(27.412 1.421)" fill="#fff"/>
          <rect id="Rectangle_1561" data-name="Rectangle 1561" width="0.402" height="35.417" transform="translate(27.814 1.421)" fill="#fff"/>
          <rect id="Rectangle_1562" data-name="Rectangle 1562" width="0.402" height="35.417" transform="translate(28.216 1.421)" fill="#fff"/>
          <rect id="Rectangle_1563" data-name="Rectangle 1563" width="0.402" height="35.417" transform="translate(28.618 1.421)" fill="#fff"/>
          <rect id="Rectangle_1564" data-name="Rectangle 1564" width="0.402" height="35.417" transform="translate(29.02 1.421)" fill="#fff"/>
          <rect id="Rectangle_1565" data-name="Rectangle 1565" width="0.402" height="35.417" transform="translate(29.422 1.421)" fill="#fff"/>
          <rect id="Rectangle_1566" data-name="Rectangle 1566" width="0.402" height="35.417" transform="translate(29.825 1.421)" fill="#fff"/>
          <rect id="Rectangle_1567" data-name="Rectangle 1567" width="0.402" height="35.417" transform="translate(30.227 1.421)" fill="#fff"/>
          <rect id="Rectangle_1568" data-name="Rectangle 1568" width="0.402" height="35.417" transform="translate(30.629 1.421)" fill="#fff"/>
          <rect id="Rectangle_1569" data-name="Rectangle 1569" width="0.402" height="35.417" transform="translate(31.031 1.421)" fill="#fff"/>
          <rect id="Rectangle_1570" data-name="Rectangle 1570" width="0.402" height="35.417" transform="translate(31.433 1.421)" fill="#fff"/>
          <rect id="Rectangle_1571" data-name="Rectangle 1571" width="0.402" height="35.417" transform="translate(31.835 1.421)" fill="#fff"/>
          <rect id="Rectangle_1572" data-name="Rectangle 1572" width="0.402" height="35.417" transform="translate(32.237 1.421)" fill="#fff"/>
          <rect id="Rectangle_1573" data-name="Rectangle 1573" width="0.402" height="35.417" transform="translate(32.639 1.421)" fill="#fff"/>
          <rect id="Rectangle_1574" data-name="Rectangle 1574" width="0.402" height="35.417" transform="translate(33.041 1.421)" fill="#fff"/>
          <rect id="Rectangle_1575" data-name="Rectangle 1575" width="0.402" height="35.417" transform="translate(33.443 1.421)" fill="#fff"/>
          <rect id="Rectangle_1576" data-name="Rectangle 1576" width="0.402" height="35.417" transform="translate(33.846 1.421)" fill="#fff"/>
          <rect id="Rectangle_1577" data-name="Rectangle 1577" width="0.402" height="35.417" transform="translate(34.248 1.421)" fill="#fff"/>
          <rect id="Rectangle_1578" data-name="Rectangle 1578" width="0.402" height="35.417" transform="translate(34.65 1.421)" fill="#fff"/>
          <rect id="Rectangle_1579" data-name="Rectangle 1579" width="0.402" height="35.417" transform="translate(35.052 1.421)" fill="#fff"/>
          <rect id="Rectangle_1580" data-name="Rectangle 1580" width="0.402" height="35.417" transform="translate(35.454 1.421)" fill="#fff"/>
          <rect id="Rectangle_1581" data-name="Rectangle 1581" width="0.402" height="35.417" transform="translate(35.856 1.421)" fill="#fff"/>
          <rect id="Rectangle_1582" data-name="Rectangle 1582" width="0.402" height="35.417" transform="translate(36.258 1.421)" fill="#fff"/>
          <rect id="Rectangle_1583" data-name="Rectangle 1583" width="0.178" height="35.417" transform="translate(36.66 1.421)" fill="#fff"/>
          <rect id="Rectangle_1584" data-name="Rectangle 1584" width="0.069" height="38.259" transform="translate(0 0)" fill="#fff"/>
          <rect id="Rectangle_1585" data-name="Rectangle 1585" width="0.402" height="38.259" transform="translate(0.069 0)" fill="#fff"/>
          <rect id="Rectangle_1586" data-name="Rectangle 1586" width="0.402" height="38.259" transform="translate(0.471 0)" fill="#fff"/>
          <rect id="Rectangle_1587" data-name="Rectangle 1587" width="0.402" height="38.259" transform="translate(0.873 0)" fill="#fff"/>
          <rect id="Rectangle_1588" data-name="Rectangle 1588" width="0.402" height="38.259" transform="translate(1.275 0)" fill="#fff"/>
          <rect id="Rectangle_1589" data-name="Rectangle 1589" width="0.402" height="38.259" transform="translate(1.677 0)" fill="#fff"/>
          <rect id="Rectangle_1590" data-name="Rectangle 1590" width="0.402" height="38.259" transform="translate(2.079 0)" fill="#fff"/>
          <rect id="Rectangle_1591" data-name="Rectangle 1591" width="0.402" height="38.259" transform="translate(2.481 0)" fill="#fff"/>
          <rect id="Rectangle_1592" data-name="Rectangle 1592" width="0.402" height="38.259" transform="translate(2.884 0)" fill="#fff"/>
          <rect id="Rectangle_1593" data-name="Rectangle 1593" width="0.402" height="38.259" transform="translate(3.286 0)" fill="#fff"/>
          <rect id="Rectangle_1594" data-name="Rectangle 1594" width="0.402" height="38.259" transform="translate(3.688 0)" fill="#fff"/>
          <rect id="Rectangle_1595" data-name="Rectangle 1595" width="0.402" height="38.259" transform="translate(4.09 0)" fill="#fff"/>
          <rect id="Rectangle_1596" data-name="Rectangle 1596" width="0.402" height="38.259" transform="translate(4.492 0)" fill="#fff"/>
          <rect id="Rectangle_1597" data-name="Rectangle 1597" width="0.402" height="38.259" transform="translate(4.894 0)" fill="#fff"/>
          <rect id="Rectangle_1598" data-name="Rectangle 1598" width="0.402" height="38.259" transform="translate(5.296 0)" fill="#fff"/>
          <rect id="Rectangle_1599" data-name="Rectangle 1599" width="0.402" height="38.259" transform="translate(5.698 0)" fill="#fff"/>
          <rect id="Rectangle_1600" data-name="Rectangle 1600" width="0.402" height="38.259" transform="translate(6.1 0)" fill="#fff"/>
          <rect id="Rectangle_1601" data-name="Rectangle 1601" width="0.402" height="38.259" transform="translate(6.502 0)" fill="#fff"/>
          <rect id="Rectangle_1602" data-name="Rectangle 1602" width="0.402" height="38.259" transform="translate(6.905 0)" fill="#fff"/>
          <rect id="Rectangle_1603" data-name="Rectangle 1603" width="0.402" height="38.259" transform="translate(7.307 0)" fill="#fff"/>
          <rect id="Rectangle_1604" data-name="Rectangle 1604" width="0.402" height="38.259" transform="translate(7.709 0)" fill="#fff"/>
          <rect id="Rectangle_1605" data-name="Rectangle 1605" width="0.402" height="38.259" transform="translate(8.111 0)" fill="#fff"/>
          <rect id="Rectangle_1606" data-name="Rectangle 1606" width="0.402" height="38.259" transform="translate(8.513 0)" fill="#fff"/>
          <rect id="Rectangle_1607" data-name="Rectangle 1607" width="0.402" height="38.259" transform="translate(8.915 0)" fill="#fff"/>
          <rect id="Rectangle_1608" data-name="Rectangle 1608" width="0.402" height="38.259" transform="translate(9.317 0)" fill="#fff"/>
          <rect id="Rectangle_1609" data-name="Rectangle 1609" width="0.402" height="38.259" transform="translate(9.719 0)" fill="#fff"/>
          <rect id="Rectangle_1610" data-name="Rectangle 1610" width="0.402" height="38.259" transform="translate(10.121 0)" fill="#fff"/>
          <rect id="Rectangle_1611" data-name="Rectangle 1611" width="0.402" height="38.259" transform="translate(10.524 0)" fill="#fff"/>
          <rect id="Rectangle_1612" data-name="Rectangle 1612" width="0.402" height="38.259" transform="translate(10.926 0)" fill="#fff"/>
          <rect id="Rectangle_1613" data-name="Rectangle 1613" width="0.402" height="38.259" transform="translate(11.328 0)" fill="#fff"/>
          <rect id="Rectangle_1614" data-name="Rectangle 1614" width="0.402" height="38.259" transform="translate(11.73 0)" fill="#fff"/>
          <rect id="Rectangle_1615" data-name="Rectangle 1615" width="0.402" height="38.259" transform="translate(12.132 0)" fill="#fff"/>
          <rect id="Rectangle_1616" data-name="Rectangle 1616" width="0.402" height="38.259" transform="translate(12.534 0)" fill="#fff"/>
          <rect id="Rectangle_1617" data-name="Rectangle 1617" width="0.402" height="38.259" transform="translate(12.936 0)" fill="#fff"/>
          <rect id="Rectangle_1618" data-name="Rectangle 1618" width="0.402" height="38.259" transform="translate(13.338 0)" fill="#fff"/>
          <rect id="Rectangle_1619" data-name="Rectangle 1619" width="0.402" height="38.259" transform="translate(13.74 0)" fill="#fff"/>
          <rect id="Rectangle_1620" data-name="Rectangle 1620" width="0.402" height="38.259" transform="translate(14.142 0)" fill="#fff"/>
          <rect id="Rectangle_1621" data-name="Rectangle 1621" width="0.402" height="38.259" transform="translate(14.545 0)" fill="#fff"/>
          <rect id="Rectangle_1622" data-name="Rectangle 1622" width="0.402" height="38.259" transform="translate(14.947 0)" fill="#fff"/>
          <rect id="Rectangle_1623" data-name="Rectangle 1623" width="0.402" height="38.259" transform="translate(15.349 0)" fill="#fff"/>
          <rect id="Rectangle_1624" data-name="Rectangle 1624" width="0.402" height="38.259" transform="translate(15.751 0)" fill="#fff"/>
          <rect id="Rectangle_1625" data-name="Rectangle 1625" width="0.402" height="38.259" transform="translate(16.153 0)" fill="#fff"/>
          <rect id="Rectangle_1626" data-name="Rectangle 1626" width="0.402" height="38.259" transform="translate(16.555 0)" fill="#fff"/>
          <rect id="Rectangle_1627" data-name="Rectangle 1627" width="0.402" height="38.259" transform="translate(16.957 0)" fill="#fff"/>
          <rect id="Rectangle_1628" data-name="Rectangle 1628" width="0.402" height="38.259" transform="translate(17.359 0)" fill="#fff"/>
          <rect id="Rectangle_1629" data-name="Rectangle 1629" width="0.402" height="38.259" transform="translate(17.761 0)" fill="#fff"/>
          <rect id="Rectangle_1630" data-name="Rectangle 1630" width="0.402" height="38.259" transform="translate(18.164 0)" fill="#fff"/>
          <rect id="Rectangle_1631" data-name="Rectangle 1631" width="0.402" height="38.259" transform="translate(18.566 0)" fill="#fff"/>
          <rect id="Rectangle_1632" data-name="Rectangle 1632" width="0.402" height="38.259" transform="translate(18.968 0)" fill="#fff"/>
          <rect id="Rectangle_1633" data-name="Rectangle 1633" width="0.402" height="38.259" transform="translate(19.37 0)" fill="#fff"/>
          <rect id="Rectangle_1634" data-name="Rectangle 1634" width="0.402" height="38.259" transform="translate(19.772 0)" fill="#fff"/>
          <rect id="Rectangle_1635" data-name="Rectangle 1635" width="0.402" height="38.259" transform="translate(20.174 0)" fill="#fff"/>
          <rect id="Rectangle_1636" data-name="Rectangle 1636" width="0.402" height="38.259" transform="translate(20.576 0)" fill="#fff"/>
          <rect id="Rectangle_1637" data-name="Rectangle 1637" width="0.402" height="38.259" transform="translate(20.978 0)" fill="#fff"/>
          <rect id="Rectangle_1638" data-name="Rectangle 1638" width="0.402" height="38.259" transform="translate(21.38 0)" fill="#fff"/>
          <rect id="Rectangle_1639" data-name="Rectangle 1639" width="0.402" height="38.259" transform="translate(21.782 0)" fill="#fff"/>
          <rect id="Rectangle_1640" data-name="Rectangle 1640" width="0.402" height="38.259" transform="translate(22.185 0)" fill="#fff"/>
          <rect id="Rectangle_1641" data-name="Rectangle 1641" width="0.402" height="38.259" transform="translate(22.587 0)" fill="#fff"/>
          <rect id="Rectangle_1642" data-name="Rectangle 1642" width="0.402" height="38.259" transform="translate(22.989 0)" fill="#fff"/>
          <rect id="Rectangle_1643" data-name="Rectangle 1643" width="0.402" height="38.259" transform="translate(23.391 0)" fill="#fff"/>
          <rect id="Rectangle_1644" data-name="Rectangle 1644" width="0.402" height="38.259" transform="translate(23.793 0)" fill="#fff"/>
          <rect id="Rectangle_1645" data-name="Rectangle 1645" width="0.402" height="38.259" transform="translate(24.195 0)" fill="#fff"/>
          <rect id="Rectangle_1646" data-name="Rectangle 1646" width="0.402" height="38.259" transform="translate(24.597 0)" fill="#fff"/>
          <rect id="Rectangle_1647" data-name="Rectangle 1647" width="0.402" height="38.259" transform="translate(24.999 0)" fill="#fff"/>
          <rect id="Rectangle_1648" data-name="Rectangle 1648" width="0.402" height="38.259" transform="translate(25.401 0)" fill="#fff"/>
          <rect id="Rectangle_1649" data-name="Rectangle 1649" width="0.402" height="38.259" transform="translate(25.804 0)" fill="#fff"/>
          <rect id="Rectangle_1650" data-name="Rectangle 1650" width="0.402" height="38.259" transform="translate(26.206 0)" fill="#fff"/>
          <rect id="Rectangle_1651" data-name="Rectangle 1651" width="0.402" height="38.259" transform="translate(26.608 0)" fill="#fff"/>
          <rect id="Rectangle_1652" data-name="Rectangle 1652" width="0.402" height="38.259" transform="translate(27.01 0)" fill="#fff"/>
          <rect id="Rectangle_1653" data-name="Rectangle 1653" width="0.402" height="38.259" transform="translate(27.412 0)" fill="#fff"/>
          <rect id="Rectangle_1654" data-name="Rectangle 1654" width="0.402" height="38.259" transform="translate(27.814 0)" fill="#fff"/>
          <rect id="Rectangle_1655" data-name="Rectangle 1655" width="0.402" height="38.259" transform="translate(28.216 0)" fill="#fff"/>
          <rect id="Rectangle_1656" data-name="Rectangle 1656" width="0.402" height="38.259" transform="translate(28.618 0)" fill="#fff"/>
          <rect id="Rectangle_1657" data-name="Rectangle 1657" width="0.402" height="38.259" transform="translate(29.02 0)" fill="#fff"/>
          <rect id="Rectangle_1658" data-name="Rectangle 1658" width="0.402" height="38.259" transform="translate(29.422 0)" fill="#fff"/>
          <rect id="Rectangle_1659" data-name="Rectangle 1659" width="0.402" height="38.259" transform="translate(29.825 0)" fill="#fff"/>
          <rect id="Rectangle_1660" data-name="Rectangle 1660" width="0.402" height="38.259" transform="translate(30.227 0)" fill="#fff"/>
          <rect id="Rectangle_1661" data-name="Rectangle 1661" width="0.402" height="38.259" transform="translate(30.629 0)" fill="#fff"/>
          <rect id="Rectangle_1662" data-name="Rectangle 1662" width="0.402" height="38.259" transform="translate(31.031 0)" fill="#fff"/>
          <rect id="Rectangle_1663" data-name="Rectangle 1663" width="0.402" height="38.259" transform="translate(31.433 0)" fill="#fff"/>
          <rect id="Rectangle_1664" data-name="Rectangle 1664" width="0.402" height="38.259" transform="translate(31.835 0)" fill="#fff"/>
          <rect id="Rectangle_1665" data-name="Rectangle 1665" width="0.402" height="38.259" transform="translate(32.237 0)" fill="#fff"/>
          <rect id="Rectangle_1666" data-name="Rectangle 1666" width="0.402" height="38.259" transform="translate(32.639 0)" fill="#fff"/>
          <rect id="Rectangle_1667" data-name="Rectangle 1667" width="0.402" height="38.259" transform="translate(33.041 0)" fill="#fff"/>
          <rect id="Rectangle_1668" data-name="Rectangle 1668" width="0.402" height="38.259" transform="translate(33.443 0)" fill="#fff"/>
          <rect id="Rectangle_1669" data-name="Rectangle 1669" width="0.402" height="38.259" transform="translate(33.846 0)" fill="#fff"/>
          <rect id="Rectangle_1670" data-name="Rectangle 1670" width="0.402" height="38.259" transform="translate(34.248 0)" fill="#fff"/>
          <rect id="Rectangle_1671" data-name="Rectangle 1671" width="0.402" height="38.259" transform="translate(34.65 0)" fill="#fff"/>
          <rect id="Rectangle_1672" data-name="Rectangle 1672" width="0.402" height="38.259" transform="translate(35.052 0)" fill="#fff"/>
          <rect id="Rectangle_1673" data-name="Rectangle 1673" width="0.402" height="38.259" transform="translate(35.454 0)" fill="#fff"/>
          <rect id="Rectangle_1674" data-name="Rectangle 1674" width="0.402" height="38.259" transform="translate(35.856 0)" fill="#fff"/>
          <rect id="Rectangle_1675" data-name="Rectangle 1675" width="0.402" height="38.259" transform="translate(36.258 0)" fill="#fff"/>
          <rect id="Rectangle_1676" data-name="Rectangle 1676" width="0.402" height="38.259" transform="translate(36.66 0)" fill="#fff"/>
          <rect id="Rectangle_1677" data-name="Rectangle 1677" width="0.402" height="38.259" transform="translate(37.062 0)" fill="#fff"/>
          <rect id="Rectangle_1678" data-name="Rectangle 1678" width="0.402" height="38.259" transform="translate(37.465 0)" fill="#fff"/>
          <rect id="Rectangle_1679" data-name="Rectangle 1679" width="0.393" height="38.259" transform="translate(37.867 0)" fill="#fff"/>
        </g>
      </g>
    </g>
  </g>
  <g id="Group_45" data-name="Group 45" transform="translate(12.162 12.246)">
    <g id="Group_38" data-name="Group 38" transform="translate(0.134 4.185)">
      <g id="Group_37" data-name="Group 37">
        <rect id="Rectangle_1680" data-name="Rectangle 1680" width="2.795" height="9.583" fill="#fff"/>
        <g id="Group_36" data-name="Group 36" clip-path="url(#clip-path-2)">
          <rect id="Rectangle_1681" data-name="Rectangle 1681" width="0.05" height="9.583" fill="#fff"/>
          <rect id="Rectangle_1682" data-name="Rectangle 1682" width="0.151" height="9.583" transform="translate(0.05)" fill="#fff"/>
          <rect id="Rectangle_1683" data-name="Rectangle 1683" width="0.151" height="9.583" transform="translate(0.201)" fill="#fff"/>
          <rect id="Rectangle_1684" data-name="Rectangle 1684" width="0.151" height="9.583" transform="translate(0.352)" fill="#fff"/>
          <rect id="Rectangle_1685" data-name="Rectangle 1685" width="0.151" height="9.583" transform="translate(0.503)" fill="#fff"/>
          <rect id="Rectangle_1686" data-name="Rectangle 1686" width="0.151" height="9.583" transform="translate(0.654)" fill="#fff"/>
          <rect id="Rectangle_1687" data-name="Rectangle 1687" width="0.151" height="9.583" transform="translate(0.805)" fill="#fff"/>
          <rect id="Rectangle_1688" data-name="Rectangle 1688" width="0.151" height="9.583" transform="translate(0.956)" fill="#fff"/>
          <rect id="Rectangle_1689" data-name="Rectangle 1689" width="0.151" height="9.583" transform="translate(1.107)" fill="#fff"/>
          <rect id="Rectangle_1690" data-name="Rectangle 1690" width="0.151" height="9.583" transform="translate(1.257)" fill="#fff"/>
          <rect id="Rectangle_1691" data-name="Rectangle 1691" width="0.151" height="9.583" transform="translate(1.408)" fill="#fff"/>
          <rect id="Rectangle_1692" data-name="Rectangle 1692" width="0.151" height="9.583" transform="translate(1.559)" fill="#fff"/>
          <rect id="Rectangle_1693" data-name="Rectangle 1693" width="0.151" height="9.583" transform="translate(1.71)" fill="#fff"/>
          <rect id="Rectangle_1694" data-name="Rectangle 1694" width="0.151" height="9.583" transform="translate(1.861)" fill="#fff"/>
          <rect id="Rectangle_1695" data-name="Rectangle 1695" width="0.151" height="9.583" transform="translate(2.012)" fill="#fff"/>
          <rect id="Rectangle_1696" data-name="Rectangle 1696" width="0.151" height="9.583" transform="translate(2.163)" fill="#fff"/>
          <rect id="Rectangle_1697" data-name="Rectangle 1697" width="0.151" height="9.583" transform="translate(2.314)" fill="#fff"/>
          <rect id="Rectangle_1698" data-name="Rectangle 1698" width="0.151" height="9.583" transform="translate(2.465)" fill="#fff"/>
          <rect id="Rectangle_1699" data-name="Rectangle 1699" width="0.151" height="9.583" transform="translate(2.615)" fill="#fff"/>
          <rect id="Rectangle_1700" data-name="Rectangle 1700" width="0.029" height="9.583" transform="translate(2.766)" fill="#fff"/>
        </g>
      </g>
    </g>
    <g id="Group_41" data-name="Group 41">
      <g id="Group_40" data-name="Group 40">
        <path id="Path_19" data-name="Path 19" d="M429.869,157.362a1.531,1.531,0,1,0,1.531,1.531A1.531,1.531,0,0,0,429.869,157.362Z" transform="translate(-428.338 -157.362)" fill="#fff"/>
        <g id="Group_39" data-name="Group 39" clip-path="url(#clip-path-3)">
          <rect id="Rectangle_1702" data-name="Rectangle 1702" width="0.178" height="3.063" transform="translate(0 0)" fill="#fff"/>
          <rect id="Rectangle_1703" data-name="Rectangle 1703" width="0.466" height="3.063" transform="translate(0.178 0)" fill="#fff"/>
          <rect id="Rectangle_1704" data-name="Rectangle 1704" width="0.466" height="3.063" transform="translate(0.644 0)" fill="#fff"/>
          <rect id="Rectangle_1705" data-name="Rectangle 1705" width="0.466" height="3.063" transform="translate(1.111 0)" fill="#fff"/>
          <rect id="Rectangle_1706" data-name="Rectangle 1706" width="0.466" height="3.063" transform="translate(1.577 0)" fill="#fff"/>
          <rect id="Rectangle_1707" data-name="Rectangle 1707" width="0.466" height="3.063" transform="translate(2.044 0)" fill="#fff"/>
          <rect id="Rectangle_1708" data-name="Rectangle 1708" width="0.466" height="3.063" transform="translate(2.51 0)" fill="#fff"/>
          <rect id="Rectangle_1709" data-name="Rectangle 1709" width="0.086" height="3.063" transform="translate(2.977 0)" fill="#fff"/>
        </g>
      </g>
    </g>
    <g id="Group_44" data-name="Group 44" transform="translate(4.764 3.91)">
      <g id="Group_43" data-name="Group 43">
        <path id="Path_21" data-name="Path 21" d="M442.929,163.928a3.747,3.747,0,0,0-3.979,1.021h0l-.343-1.264h-2.562v9.858h3V167.7a1.581,1.581,0,0,1,1.581-1.581h0A1.581,1.581,0,0,1,442.2,167.7v5.848h3v-4.929S445.533,164.662,442.929,163.928Z" transform="translate(-436.044 -163.686)" fill="#fff"/>
        <g id="Group_42" data-name="Group 42" clip-path="url(#clip-path-4)">
          <rect id="Rectangle_1710" data-name="Rectangle 1710" width="0.242" height="10.349" transform="translate(0 -0.491)" fill="#fff"/>
          <rect id="Rectangle_1711" data-name="Rectangle 1711" width="0.357" height="10.349" transform="translate(0.242 -0.491)" fill="#fff"/>
          <rect id="Rectangle_1712" data-name="Rectangle 1712" width="0.357" height="10.349" transform="translate(0.599 -0.491)" fill="#fff"/>
          <rect id="Rectangle_1713" data-name="Rectangle 1713" width="0.357" height="10.349" transform="translate(0.956 -0.491)" fill="#fff"/>
          <rect id="Rectangle_1714" data-name="Rectangle 1714" width="0.357" height="10.349" transform="translate(1.313 -0.491)" fill="#fff"/>
          <rect id="Rectangle_1715" data-name="Rectangle 1715" width="0.357" height="10.349" transform="translate(1.67 -0.491)" fill="#fff"/>
          <rect id="Rectangle_1716" data-name="Rectangle 1716" width="0.357" height="10.349" transform="translate(2.027 -0.491)" fill="#fff"/>
          <rect id="Rectangle_1717" data-name="Rectangle 1717" width="0.357" height="10.349" transform="translate(2.384 -0.491)" fill="#fff"/>
          <rect id="Rectangle_1718" data-name="Rectangle 1718" width="0.357" height="10.349" transform="translate(2.741 -0.491)" fill="#fff"/>
          <rect id="Rectangle_1719" data-name="Rectangle 1719" width="0.357" height="10.349" transform="translate(3.098 -0.491)" fill="#fff"/>
          <rect id="Rectangle_1720" data-name="Rectangle 1720" width="0.357" height="10.349" transform="translate(3.455 -0.491)" fill="#fff"/>
          <rect id="Rectangle_1721" data-name="Rectangle 1721" width="0.357" height="10.349" transform="translate(3.812 -0.491)" fill="#fff"/>
          <rect id="Rectangle_1722" data-name="Rectangle 1722" width="0.357" height="10.349" transform="translate(4.169 -0.491)" fill="#fff"/>
          <rect id="Rectangle_1723" data-name="Rectangle 1723" width="0.357" height="10.349" transform="translate(4.526 -0.491)" fill="#fff"/>
          <rect id="Rectangle_1724" data-name="Rectangle 1724" width="0.357" height="10.349" transform="translate(4.883 -0.491)" fill="#fff"/>
          <rect id="Rectangle_1725" data-name="Rectangle 1725" width="0.357" height="10.349" transform="translate(5.24 -0.491)" fill="#fff"/>
          <rect id="Rectangle_1726" data-name="Rectangle 1726" width="0.357" height="10.349" transform="translate(5.597 -0.491)" fill="#fff"/>
          <rect id="Rectangle_1727" data-name="Rectangle 1727" width="0.357" height="10.349" transform="translate(5.954 -0.491)" fill="#fff"/>
          <rect id="Rectangle_1728" data-name="Rectangle 1728" width="0.357" height="10.349" transform="translate(6.311 -0.491)" fill="#fff"/>
          <rect id="Rectangle_1729" data-name="Rectangle 1729" width="0.357" height="10.349" transform="translate(6.668 -0.491)" fill="#fff"/>
          <rect id="Rectangle_1730" data-name="Rectangle 1730" width="0.357" height="10.349" transform="translate(7.025 -0.491)" fill="#fff"/>
          <rect id="Rectangle_1731" data-name="Rectangle 1731" width="0.357" height="10.349" transform="translate(7.382 -0.491)" fill="#fff"/>
          <rect id="Rectangle_1732" data-name="Rectangle 1732" width="0.357" height="10.349" transform="translate(7.739 -0.491)" fill="#fff"/>
          <rect id="Rectangle_1733" data-name="Rectangle 1733" width="0.357" height="10.349" transform="translate(8.095 -0.491)" fill="#fff"/>
          <rect id="Rectangle_1734" data-name="Rectangle 1734" width="0.357" height="10.349" transform="translate(8.452 -0.491)" fill="#fff"/>
          <rect id="Rectangle_1735" data-name="Rectangle 1735" width="0.357" height="10.349" transform="translate(8.809 -0.491)" fill="#fff"/>
          <rect id="Rectangle_1736" data-name="Rectangle 1736" width="0.323" height="10.349" transform="translate(9.166 -0.491)" fill="#fff"/>
        </g>
      </g>
    </g>
  </g>
</svg>
