<svg xmlns="http://www.w3.org/2000/svg" width="19.549" height="21.753" viewBox="0 0 19.549 21.753">
  <path id="Path_362" data-name="Path 362" d="M22.487,10.173h-.913V6.9a5.7,5.7,0,1,0-11.4,0v3.273H9.262A3.174,3.174,0,0,0,6.1,13.334v6.457a3.174,3.174,0,0,0,3.162,3.162H22.487a3.174,3.174,0,0,0,3.162-3.162V13.334A3.159,3.159,0,0,0,22.487,10.173ZM11.51,6.9a4.353,4.353,0,1,1,8.706-.022V10.15H11.51ZM24.29,19.791a1.81,1.81,0,0,1-1.8,1.8H9.239a1.81,1.81,0,0,1-1.8-1.8V13.334a1.81,1.81,0,0,1,1.8-1.8H22.465a1.81,1.81,0,0,1,1.8,1.8Z" transform="translate(-6.1 -1.2)" fill="#2f2d98"/>
</svg>
