<svg id="Group_8" data-name="Group 8" xmlns="http://www.w3.org/2000/svg" xmlns:xlink="http://www.w3.org/1999/xlink" width="38.26" height="38.26" viewBox="0 0 38.26 38.26">
  <defs>
    <clipPath id="clip-path">
      <path id="Path_2" data-name="Path 2" d="M189.647,175.813H174.822A11.73,11.73,0,0,1,163.105,164.1V149.271a11.73,11.73,0,0,1,11.717-11.717h14.825a11.73,11.73,0,0,1,11.717,11.717V164.1A11.73,11.73,0,0,1,189.647,175.813Zm-14.825-36.838a10.308,10.308,0,0,0-10.3,10.3V164.1a10.308,10.308,0,0,0,10.3,10.3h14.825a10.308,10.308,0,0,0,10.3-10.3V149.271a10.308,10.308,0,0,0-10.3-10.3Z" transform="translate(-163.105 -137.554)" fill="#fff"/>
    </clipPath>
    <clipPath id="clip-path-2">
      <path id="Path_4" data-name="Path 4" d="M195.872,156.908a5.26,5.26,0,0,0,1.669-2.267,8.914,8.914,0,0,1-2.7.8,4.452,4.452,0,0,0-7.714,4.166l-.034,0c-6.594-.453-9.273-4.684-9.273-4.684a5.421,5.421,0,0,0,1.016,5.989,2.654,2.654,0,0,1-1.509-.385s-.551,2.857,3.048,4.4a4.955,4.955,0,0,1-1.573.172,4.811,4.811,0,0,0,4.073,3.043s-1.346,1.7-6.044,2.033a12.525,12.525,0,0,0,19.039-10.187l2.247-3.591Z" transform="translate(-176.832 -153.761)" fill="#fff"/>
    </clipPath>
  </defs>
  <g id="Group_4" data-name="Group 4">
    <g id="Group_3" data-name="Group 3">
      <g id="Group_2" data-name="Group 2">
        <path id="Path_1" data-name="Path 1" d="M189.647,175.813H174.822A11.73,11.73,0,0,1,163.105,164.1V149.271a11.73,11.73,0,0,1,11.717-11.717h14.825a11.73,11.73,0,0,1,11.717,11.717V164.1A11.73,11.73,0,0,1,189.647,175.813Zm-14.825-36.838a10.308,10.308,0,0,0-10.3,10.3V164.1a10.308,10.308,0,0,0,10.3,10.3h14.825a10.308,10.308,0,0,0,10.3-10.3V149.271a10.308,10.308,0,0,0-10.3-10.3Z" transform="translate(-163.105 -137.554)" fill="#fff"/>
        <g id="Group_1" data-name="Group 1" clip-path="url(#clip-path)">
          <rect id="Rectangle_1" data-name="Rectangle 1" width="0.427" height="35.417" transform="translate(1.421 1.421)" fill="#fff"/>
          <rect id="Rectangle_2" data-name="Rectangle 2" width="0.713" height="35.417" transform="translate(1.848 1.421)" fill="#fff"/>
          <rect id="Rectangle_3" data-name="Rectangle 3" width="0.713" height="35.417" transform="translate(2.561 1.421)" fill="#fff"/>
          <rect id="Rectangle_4" data-name="Rectangle 4" width="0.713" height="35.417" transform="translate(3.273 1.421)" fill="#fff"/>
          <rect id="Rectangle_5" data-name="Rectangle 5" width="0.713" height="35.417" transform="translate(3.986 1.421)" fill="#fff"/>
          <rect id="Rectangle_6" data-name="Rectangle 6" width="0.713" height="35.417" transform="translate(4.699 1.421)" fill="#fff"/>
          <rect id="Rectangle_7" data-name="Rectangle 7" width="0.713" height="35.417" transform="translate(5.412 1.421)" fill="#fff"/>
          <rect id="Rectangle_8" data-name="Rectangle 8" width="0.713" height="35.417" transform="translate(6.125 1.421)" fill="#fff"/>
          <rect id="Rectangle_9" data-name="Rectangle 9" width="0.713" height="35.417" transform="translate(6.838 1.421)" fill="#fff"/>
          <rect id="Rectangle_10" data-name="Rectangle 10" width="0.713" height="35.417" transform="translate(7.55 1.421)" fill="#fff"/>
          <rect id="Rectangle_11" data-name="Rectangle 11" width="0.713" height="35.417" transform="translate(8.263 1.421)" fill="#fff"/>
          <rect id="Rectangle_12" data-name="Rectangle 12" width="0.713" height="35.417" transform="translate(8.976 1.421)" fill="#fff"/>
          <rect id="Rectangle_13" data-name="Rectangle 13" width="0.713" height="35.417" transform="translate(9.689 1.421)" fill="#fff"/>
          <rect id="Rectangle_14" data-name="Rectangle 14" width="0.713" height="35.417" transform="translate(10.402 1.421)" fill="#fff"/>
          <rect id="Rectangle_15" data-name="Rectangle 15" width="0.713" height="35.417" transform="translate(11.115 1.421)" fill="#fff"/>
          <rect id="Rectangle_16" data-name="Rectangle 16" width="0.713" height="35.417" transform="translate(11.827 1.421)" fill="#fff"/>
          <rect id="Rectangle_17" data-name="Rectangle 17" width="0.713" height="35.417" transform="translate(12.54 1.421)" fill="#fff"/>
          <rect id="Rectangle_18" data-name="Rectangle 18" width="0.713" height="35.417" transform="translate(13.253 1.421)" fill="#fff"/>
          <rect id="Rectangle_19" data-name="Rectangle 19" width="0.713" height="35.417" transform="translate(13.966 1.421)" fill="#fff"/>
          <rect id="Rectangle_20" data-name="Rectangle 20" width="0.713" height="35.417" transform="translate(14.679 1.421)" fill="#fff"/>
          <rect id="Rectangle_21" data-name="Rectangle 21" width="0.713" height="35.417" transform="translate(15.392 1.421)" fill="#fff"/>
          <rect id="Rectangle_22" data-name="Rectangle 22" width="0.713" height="35.417" transform="translate(16.104 1.421)" fill="#fff"/>
          <rect id="Rectangle_23" data-name="Rectangle 23" width="0.713" height="35.417" transform="translate(16.817 1.421)" fill="#fff"/>
          <rect id="Rectangle_24" data-name="Rectangle 24" width="0.713" height="35.417" transform="translate(17.53 1.421)" fill="#fff"/>
          <rect id="Rectangle_25" data-name="Rectangle 25" width="0.713" height="35.417" transform="translate(18.243 1.421)" fill="#fff"/>
          <rect id="Rectangle_26" data-name="Rectangle 26" width="0.713" height="35.417" transform="translate(18.956 1.421)" fill="#fff"/>
          <rect id="Rectangle_27" data-name="Rectangle 27" width="0.713" height="35.417" transform="translate(19.669 1.421)" fill="#fff"/>
          <rect id="Rectangle_28" data-name="Rectangle 28" width="0.713" height="35.417" transform="translate(20.381 1.421)" fill="#fff"/>
          <rect id="Rectangle_29" data-name="Rectangle 29" width="0.713" height="35.417" transform="translate(21.094 1.421)" fill="#fff"/>
          <rect id="Rectangle_30" data-name="Rectangle 30" width="0.713" height="35.417" transform="translate(21.807 1.421)" fill="#fff"/>
          <rect id="Rectangle_31" data-name="Rectangle 31" width="0.713" height="35.417" transform="translate(22.52 1.421)" fill="#fff"/>
          <rect id="Rectangle_32" data-name="Rectangle 32" width="0.713" height="35.417" transform="translate(23.233 1.421)" fill="#fff"/>
          <rect id="Rectangle_33" data-name="Rectangle 33" width="0.713" height="35.417" transform="translate(23.946 1.421)" fill="#fff"/>
          <rect id="Rectangle_34" data-name="Rectangle 34" width="0.713" height="35.417" transform="translate(24.658 1.421)" fill="#fff"/>
          <rect id="Rectangle_35" data-name="Rectangle 35" width="0.713" height="35.417" transform="translate(25.371 1.421)" fill="#fff"/>
          <rect id="Rectangle_36" data-name="Rectangle 36" width="0.713" height="35.417" transform="translate(26.084 1.421)" fill="#fff"/>
          <rect id="Rectangle_37" data-name="Rectangle 37" width="0.713" height="35.417" transform="translate(26.797 1.421)" fill="#fff"/>
          <rect id="Rectangle_38" data-name="Rectangle 38" width="0.713" height="35.417" transform="translate(27.51 1.421)" fill="#fff"/>
          <rect id="Rectangle_39" data-name="Rectangle 39" width="0.713" height="35.417" transform="translate(28.223 1.421)" fill="#fff"/>
          <rect id="Rectangle_40" data-name="Rectangle 40" width="0.713" height="35.417" transform="translate(28.935 1.421)" fill="#fff"/>
          <rect id="Rectangle_41" data-name="Rectangle 41" width="0.713" height="35.417" transform="translate(29.648 1.421)" fill="#fff"/>
          <rect id="Rectangle_42" data-name="Rectangle 42" width="0.713" height="35.417" transform="translate(30.361 1.421)" fill="#fff"/>
          <rect id="Rectangle_43" data-name="Rectangle 43" width="0.713" height="35.417" transform="translate(31.074 1.421)" fill="#fff"/>
          <rect id="Rectangle_44" data-name="Rectangle 44" width="0.713" height="35.417" transform="translate(31.787 1.421)" fill="#fff"/>
          <rect id="Rectangle_45" data-name="Rectangle 45" width="0.713" height="35.417" transform="translate(32.5 1.421)" fill="#fff"/>
          <rect id="Rectangle_46" data-name="Rectangle 46" width="0.713" height="35.417" transform="translate(33.212 1.421)" fill="#fff"/>
          <rect id="Rectangle_47" data-name="Rectangle 47" width="0.713" height="35.417" transform="translate(33.925 1.421)" fill="#fff"/>
          <rect id="Rectangle_48" data-name="Rectangle 48" width="0.713" height="35.417" transform="translate(34.638 1.421)" fill="#fff"/>
          <rect id="Rectangle_49" data-name="Rectangle 49" width="0.713" height="35.417" transform="translate(35.351 1.421)" fill="#fff"/>
          <rect id="Rectangle_50" data-name="Rectangle 50" width="0.713" height="35.417" transform="translate(36.064 1.421)" fill="#fff"/>
          <rect id="Rectangle_51" data-name="Rectangle 51" width="0.062" height="35.417" transform="translate(36.777 1.421)" fill="#fff"/>
          <rect id="Rectangle_52" data-name="Rectangle 52" width="0.422" height="38.259" transform="translate(0 0)" fill="#fff"/>
          <rect id="Rectangle_53" data-name="Rectangle 53" width="0.713" height="38.259" transform="translate(0.422 0)" fill="#fff"/>
          <rect id="Rectangle_54" data-name="Rectangle 54" width="0.713" height="38.259" transform="translate(1.135 0)" fill="#fff"/>
          <rect id="Rectangle_55" data-name="Rectangle 55" width="0.713" height="38.259" transform="translate(1.848 0)" fill="#fff"/>
          <rect id="Rectangle_56" data-name="Rectangle 56" width="0.713" height="38.259" transform="translate(2.561 0)" fill="#fff"/>
          <rect id="Rectangle_57" data-name="Rectangle 57" width="0.713" height="38.259" transform="translate(3.273 0)" fill="#fff"/>
          <rect id="Rectangle_58" data-name="Rectangle 58" width="0.713" height="38.259" transform="translate(3.986 0)" fill="#fff"/>
          <rect id="Rectangle_59" data-name="Rectangle 59" width="0.713" height="38.259" transform="translate(4.699 0)" fill="#fff"/>
          <rect id="Rectangle_60" data-name="Rectangle 60" width="0.713" height="38.259" transform="translate(5.412 0)" fill="#fff"/>
          <rect id="Rectangle_61" data-name="Rectangle 61" width="0.713" height="38.259" transform="translate(6.125 0)" fill="#fff"/>
          <rect id="Rectangle_62" data-name="Rectangle 62" width="0.713" height="38.259" transform="translate(6.838 0)" fill="#fff"/>
          <rect id="Rectangle_63" data-name="Rectangle 63" width="0.713" height="38.259" transform="translate(7.55 0)" fill="#fff"/>
          <rect id="Rectangle_64" data-name="Rectangle 64" width="0.713" height="38.259" transform="translate(8.263 0)" fill="#fff"/>
          <rect id="Rectangle_65" data-name="Rectangle 65" width="0.713" height="38.259" transform="translate(8.976 0)" fill="#fff"/>
          <rect id="Rectangle_66" data-name="Rectangle 66" width="0.713" height="38.259" transform="translate(9.689 0)" fill="#fff"/>
          <rect id="Rectangle_67" data-name="Rectangle 67" width="0.713" height="38.259" transform="translate(10.402 0)" fill="#fff"/>
          <rect id="Rectangle_68" data-name="Rectangle 68" width="0.713" height="38.259" transform="translate(11.115 0)" fill="#fff"/>
          <rect id="Rectangle_69" data-name="Rectangle 69" width="0.713" height="38.259" transform="translate(11.827 0)" fill="#fff"/>
          <rect id="Rectangle_70" data-name="Rectangle 70" width="0.713" height="38.259" transform="translate(12.54 0)" fill="#fff"/>
          <rect id="Rectangle_71" data-name="Rectangle 71" width="0.713" height="38.259" transform="translate(13.253 0)" fill="#fff"/>
          <rect id="Rectangle_72" data-name="Rectangle 72" width="0.713" height="38.259" transform="translate(13.966 0)" fill="#fff"/>
          <rect id="Rectangle_73" data-name="Rectangle 73" width="0.713" height="38.259" transform="translate(14.679 0)" fill="#fff"/>
          <rect id="Rectangle_74" data-name="Rectangle 74" width="0.713" height="38.259" transform="translate(15.392 0)" fill="#fff"/>
          <rect id="Rectangle_75" data-name="Rectangle 75" width="0.713" height="38.259" transform="translate(16.104 0)" fill="#fff"/>
          <rect id="Rectangle_76" data-name="Rectangle 76" width="0.713" height="38.259" transform="translate(16.817 0)" fill="#fff"/>
          <rect id="Rectangle_77" data-name="Rectangle 77" width="0.713" height="38.259" transform="translate(17.53 0)" fill="#fff"/>
          <rect id="Rectangle_78" data-name="Rectangle 78" width="0.713" height="38.259" transform="translate(18.243 0)" fill="#fff"/>
          <rect id="Rectangle_79" data-name="Rectangle 79" width="0.713" height="38.259" transform="translate(18.956 0)" fill="#fff"/>
          <rect id="Rectangle_80" data-name="Rectangle 80" width="0.713" height="38.259" transform="translate(19.669 0)" fill="#fff"/>
          <rect id="Rectangle_81" data-name="Rectangle 81" width="0.713" height="38.259" transform="translate(20.381 0)" fill="#fff"/>
          <rect id="Rectangle_82" data-name="Rectangle 82" width="0.713" height="38.259" transform="translate(21.094 0)" fill="#fff"/>
          <rect id="Rectangle_83" data-name="Rectangle 83" width="0.713" height="38.259" transform="translate(21.807 0)" fill="#fff"/>
          <rect id="Rectangle_84" data-name="Rectangle 84" width="0.713" height="38.259" transform="translate(22.52 0)" fill="#fff"/>
          <rect id="Rectangle_85" data-name="Rectangle 85" width="0.713" height="38.259" transform="translate(23.233 0)" fill="#fff"/>
          <rect id="Rectangle_86" data-name="Rectangle 86" width="0.713" height="38.259" transform="translate(23.946 0)" fill="#fff"/>
          <rect id="Rectangle_87" data-name="Rectangle 87" width="0.713" height="38.259" transform="translate(24.658 0)" fill="#fff"/>
          <rect id="Rectangle_88" data-name="Rectangle 88" width="0.713" height="38.259" transform="translate(25.371 0)" fill="#fff"/>
          <rect id="Rectangle_89" data-name="Rectangle 89" width="0.713" height="38.259" transform="translate(26.084 0)" fill="#fff"/>
          <rect id="Rectangle_90" data-name="Rectangle 90" width="0.713" height="38.259" transform="translate(26.797 0)" fill="#fff"/>
          <rect id="Rectangle_91" data-name="Rectangle 91" width="0.713" height="38.259" transform="translate(27.51 0)" fill="#fff"/>
          <rect id="Rectangle_92" data-name="Rectangle 92" width="0.713" height="38.259" transform="translate(28.223 0)" fill="#fff"/>
          <rect id="Rectangle_93" data-name="Rectangle 93" width="0.713" height="38.259" transform="translate(28.935 0)" fill="#fff"/>
          <rect id="Rectangle_94" data-name="Rectangle 94" width="0.713" height="38.259" transform="translate(29.648 0)" fill="#fff"/>
          <rect id="Rectangle_95" data-name="Rectangle 95" width="0.713" height="38.259" transform="translate(30.361 0)" fill="#fff"/>
          <rect id="Rectangle_96" data-name="Rectangle 96" width="0.713" height="38.259" transform="translate(31.074 0)" fill="#fff"/>
          <rect id="Rectangle_97" data-name="Rectangle 97" width="0.713" height="38.259" transform="translate(31.787 0)" fill="#fff"/>
          <rect id="Rectangle_98" data-name="Rectangle 98" width="0.713" height="38.259" transform="translate(32.5 0)" fill="#fff"/>
          <rect id="Rectangle_99" data-name="Rectangle 99" width="0.713" height="38.259" transform="translate(33.212 0)" fill="#fff"/>
          <rect id="Rectangle_100" data-name="Rectangle 100" width="0.713" height="38.259" transform="translate(33.925 0)" fill="#fff"/>
          <rect id="Rectangle_101" data-name="Rectangle 101" width="0.713" height="38.259" transform="translate(34.638 0)" fill="#fff"/>
          <rect id="Rectangle_102" data-name="Rectangle 102" width="0.713" height="38.259" transform="translate(35.351 0)" fill="#fff"/>
          <rect id="Rectangle_103" data-name="Rectangle 103" width="0.713" height="38.259" transform="translate(36.064 0)" fill="#fff"/>
          <rect id="Rectangle_104" data-name="Rectangle 104" width="0.713" height="38.259" transform="translate(36.777 0)" fill="#fff"/>
          <rect id="Rectangle_105" data-name="Rectangle 105" width="0.713" height="38.259" transform="translate(37.489 0)" fill="#fff"/>
          <rect id="Rectangle_106" data-name="Rectangle 106" width="0.057" height="38.259" transform="translate(38.202 0)" fill="#fff"/>
        </g>
      </g>
    </g>
  </g>
  <g id="Group_7" data-name="Group 7" transform="translate(8.487 10.02)">
    <g id="Group_6" data-name="Group 6">
      <path id="Path_3" data-name="Path 3" d="M195.872,156.908a5.26,5.26,0,0,0,1.669-2.267,8.914,8.914,0,0,1-2.7.8,4.452,4.452,0,0,0-7.714,4.166l-.034,0c-6.594-.453-9.273-4.684-9.273-4.684a5.421,5.421,0,0,0,1.016,5.989,2.654,2.654,0,0,1-1.509-.385s-.551,2.857,3.048,4.4a4.955,4.955,0,0,1-1.573.172,4.811,4.811,0,0,0,4.073,3.043s-1.346,1.7-6.044,2.033a12.525,12.525,0,0,0,19.039-10.187l2.247-3.591Z" transform="translate(-176.832 -153.761)" fill="#fff"/>
      <g id="Group_5" data-name="Group 5" clip-path="url(#clip-path-2)">
        <rect id="Rectangle_107" data-name="Rectangle 107" width="0.219" height="21.493" transform="translate(-0.632 0)" fill="#fff"/>
        <rect id="Rectangle_108" data-name="Rectangle 108" width="0.687" height="21.493" transform="translate(-0.413 0)" fill="#fff"/>
        <rect id="Rectangle_109" data-name="Rectangle 109" width="0.687" height="21.493" transform="translate(0.274 0)" fill="#fff"/>
        <rect id="Rectangle_110" data-name="Rectangle 110" width="0.687" height="21.493" transform="translate(0.961 0)" fill="#fff"/>
        <rect id="Rectangle_111" data-name="Rectangle 111" width="0.687" height="21.493" transform="translate(1.648 0)" fill="#fff"/>
        <rect id="Rectangle_112" data-name="Rectangle 112" width="0.687" height="21.493" transform="translate(2.335 0)" fill="#fff"/>
        <rect id="Rectangle_113" data-name="Rectangle 113" width="0.687" height="21.493" transform="translate(3.022 0)" fill="#fff"/>
        <rect id="Rectangle_114" data-name="Rectangle 114" width="0.687" height="21.493" transform="translate(3.709 0)" fill="#fff"/>
        <rect id="Rectangle_115" data-name="Rectangle 115" width="0.687" height="21.493" transform="translate(4.396 0)" fill="#fff"/>
        <rect id="Rectangle_116" data-name="Rectangle 116" width="0.687" height="21.493" transform="translate(5.083 0)" fill="#fff"/>
        <rect id="Rectangle_117" data-name="Rectangle 117" width="0.687" height="21.493" transform="translate(5.77 0)" fill="#fff"/>
        <rect id="Rectangle_118" data-name="Rectangle 118" width="0.687" height="21.493" transform="translate(6.457 0)" fill="#fff"/>
        <rect id="Rectangle_119" data-name="Rectangle 119" width="0.687" height="21.493" transform="translate(7.144 0)" fill="#fff"/>
        <rect id="Rectangle_120" data-name="Rectangle 120" width="0.687" height="21.493" transform="translate(7.831 0)" fill="#fff"/>
        <rect id="Rectangle_121" data-name="Rectangle 121" width="0.687" height="21.493" transform="translate(8.518 0)" fill="#fff"/>
        <rect id="Rectangle_122" data-name="Rectangle 122" width="0.687" height="21.493" transform="translate(9.205 0)" fill="#fff"/>
        <rect id="Rectangle_123" data-name="Rectangle 123" width="0.687" height="21.493" transform="translate(9.892 0)" fill="#fff"/>
        <rect id="Rectangle_124" data-name="Rectangle 124" width="0.687" height="21.493" transform="translate(10.579 0)" fill="#fff"/>
        <rect id="Rectangle_125" data-name="Rectangle 125" width="0.687" height="21.493" transform="translate(11.266 0)" fill="#fff"/>
        <rect id="Rectangle_126" data-name="Rectangle 126" width="0.687" height="21.493" transform="translate(11.953 0)" fill="#fff"/>
        <rect id="Rectangle_127" data-name="Rectangle 127" width="0.687" height="21.493" transform="translate(12.64 0)" fill="#fff"/>
        <rect id="Rectangle_128" data-name="Rectangle 128" width="0.687" height="21.493" transform="translate(13.327 0)" fill="#fff"/>
        <rect id="Rectangle_129" data-name="Rectangle 129" width="0.687" height="21.493" transform="translate(14.014 0)" fill="#fff"/>
        <rect id="Rectangle_130" data-name="Rectangle 130" width="0.687" height="21.493" transform="translate(14.701 0)" fill="#fff"/>
        <rect id="Rectangle_131" data-name="Rectangle 131" width="0.687" height="21.493" transform="translate(15.388 0)" fill="#fff"/>
        <rect id="Rectangle_132" data-name="Rectangle 132" width="0.687" height="21.493" transform="translate(16.075 0)" fill="#fff"/>
        <rect id="Rectangle_133" data-name="Rectangle 133" width="0.687" height="21.493" transform="translate(16.762 0)" fill="#fff"/>
        <rect id="Rectangle_134" data-name="Rectangle 134" width="0.687" height="21.493" transform="translate(17.449 0)" fill="#fff"/>
        <rect id="Rectangle_135" data-name="Rectangle 135" width="0.687" height="21.493" transform="translate(18.136 0)" fill="#fff"/>
        <rect id="Rectangle_136" data-name="Rectangle 136" width="0.687" height="21.493" transform="translate(18.823 0)" fill="#fff"/>
        <rect id="Rectangle_137" data-name="Rectangle 137" width="0.687" height="21.493" transform="translate(19.51 0)" fill="#fff"/>
        <rect id="Rectangle_138" data-name="Rectangle 138" width="0.687" height="21.493" transform="translate(20.197 0)" fill="#fff"/>
        <rect id="Rectangle_139" data-name="Rectangle 139" width="0.402" height="21.493" transform="translate(20.884 0)" fill="#fff"/>
      </g>
    </g>
  </g>
</svg>
