<svg id="Group_31" data-name="Group 31" xmlns="http://www.w3.org/2000/svg" xmlns:xlink="http://www.w3.org/1999/xlink" width="38.259" height="38.26" viewBox="0 0 38.259 38.26">
  <defs>
    <clipPath id="clip-path">
      <path id="Path_14" data-name="Path 14" d="M271.5,175.813H256.676A11.73,11.73,0,0,1,244.959,164.1V149.271a11.73,11.73,0,0,1,11.717-11.717H271.5a11.73,11.73,0,0,1,11.717,11.717V164.1A11.73,11.73,0,0,1,271.5,175.813Zm-14.825-36.838a10.308,10.308,0,0,0-10.3,10.3V164.1a10.308,10.308,0,0,0,10.3,10.3H271.5a10.308,10.308,0,0,0,10.3-10.3V149.271a10.308,10.308,0,0,0-10.3-10.3Z" transform="translate(-244.959 -137.554)" fill="#fff"/>
    </clipPath>
    <clipPath id="clip-path-2">
      <path id="Path_16" data-name="Path 16" d="M275.775,155.722H263.018a4.154,4.154,0,0,0-4.155,4.155v7.486a4.154,4.154,0,0,0,4.155,4.155h12.758a4.154,4.154,0,0,0,4.155-4.155v-7.486A4.154,4.154,0,0,0,275.775,155.722ZM266.8,167.084v-6.928a.705.705,0,0,1,1.067-.605l5.79,3.464a.7.7,0,0,1,0,1.21l-5.79,3.465A.705.705,0,0,1,266.8,167.084Z" transform="translate(-258.863 -155.722)" fill="#fff"/>
    </clipPath>
  </defs>
  <g id="Group_27" data-name="Group 27">
    <g id="Group_26" data-name="Group 26">
      <g id="Group_25" data-name="Group 25">
        <path id="Path_13" data-name="Path 13" d="M271.5,175.813H256.676A11.73,11.73,0,0,1,244.959,164.1V149.271a11.73,11.73,0,0,1,11.717-11.717H271.5a11.73,11.73,0,0,1,11.717,11.717V164.1A11.73,11.73,0,0,1,271.5,175.813Zm-14.825-36.838a10.308,10.308,0,0,0-10.3,10.3V164.1a10.308,10.308,0,0,0,10.3,10.3H271.5a10.308,10.308,0,0,0,10.3-10.3V149.271a10.308,10.308,0,0,0-10.3-10.3Z" transform="translate(-244.959 -137.554)" fill="#fff"/>
        <g id="Group_24" data-name="Group 24" clip-path="url(#clip-path)">
          <rect id="Rectangle_1199" data-name="Rectangle 1199" width="0.311" height="35.417" transform="translate(1.421 1.421)" fill="#fff"/>
          <rect id="Rectangle_1200" data-name="Rectangle 1200" width="0.331" height="35.417" transform="translate(1.732 1.421)" fill="#fff"/>
          <rect id="Rectangle_1201" data-name="Rectangle 1201" width="0.331" height="35.417" transform="translate(2.063 1.421)" fill="#fff"/>
          <rect id="Rectangle_1202" data-name="Rectangle 1202" width="0.331" height="35.417" transform="translate(2.393 1.421)" fill="#fff"/>
          <rect id="Rectangle_1203" data-name="Rectangle 1203" width="0.331" height="35.417" transform="translate(2.724 1.421)" fill="#fff"/>
          <rect id="Rectangle_1204" data-name="Rectangle 1204" width="0.331" height="35.417" transform="translate(3.054 1.421)" fill="#fff"/>
          <rect id="Rectangle_1205" data-name="Rectangle 1205" width="0.331" height="35.417" transform="translate(3.385 1.421)" fill="#fff"/>
          <rect id="Rectangle_1206" data-name="Rectangle 1206" width="0.331" height="35.417" transform="translate(3.715 1.421)" fill="#fff"/>
          <rect id="Rectangle_1207" data-name="Rectangle 1207" width="0.331" height="35.417" transform="translate(4.046 1.421)" fill="#fff"/>
          <rect id="Rectangle_1208" data-name="Rectangle 1208" width="0.331" height="35.417" transform="translate(4.377 1.421)" fill="#fff"/>
          <rect id="Rectangle_1209" data-name="Rectangle 1209" width="0.331" height="35.417" transform="translate(4.707 1.421)" fill="#fff"/>
          <rect id="Rectangle_1210" data-name="Rectangle 1210" width="0.331" height="35.417" transform="translate(5.038 1.421)" fill="#fff"/>
          <rect id="Rectangle_1211" data-name="Rectangle 1211" width="0.331" height="35.417" transform="translate(5.368 1.421)" fill="#fff"/>
          <rect id="Rectangle_1212" data-name="Rectangle 1212" width="0.331" height="35.417" transform="translate(5.699 1.421)" fill="#fff"/>
          <rect id="Rectangle_1213" data-name="Rectangle 1213" width="0.331" height="35.417" transform="translate(6.029 1.421)" fill="#fff"/>
          <rect id="Rectangle_1214" data-name="Rectangle 1214" width="0.331" height="35.417" transform="translate(6.36 1.421)" fill="#fff"/>
          <rect id="Rectangle_1215" data-name="Rectangle 1215" width="0.331" height="35.417" transform="translate(6.691 1.421)" fill="#fff"/>
          <rect id="Rectangle_1216" data-name="Rectangle 1216" width="0.331" height="35.417" transform="translate(7.021 1.421)" fill="#fff"/>
          <rect id="Rectangle_1217" data-name="Rectangle 1217" width="0.331" height="35.417" transform="translate(7.352 1.421)" fill="#fff"/>
          <rect id="Rectangle_1218" data-name="Rectangle 1218" width="0.331" height="35.417" transform="translate(7.682 1.421)" fill="#fff"/>
          <rect id="Rectangle_1219" data-name="Rectangle 1219" width="0.331" height="35.417" transform="translate(8.013 1.421)" fill="#fff"/>
          <rect id="Rectangle_1220" data-name="Rectangle 1220" width="0.331" height="35.417" transform="translate(8.343 1.421)" fill="#fff"/>
          <rect id="Rectangle_1221" data-name="Rectangle 1221" width="0.331" height="35.417" transform="translate(8.674 1.421)" fill="#fff"/>
          <rect id="Rectangle_1222" data-name="Rectangle 1222" width="0.331" height="35.417" transform="translate(9.004 1.421)" fill="#fff"/>
          <rect id="Rectangle_1223" data-name="Rectangle 1223" width="0.331" height="35.417" transform="translate(9.335 1.421)" fill="#fff"/>
          <rect id="Rectangle_1224" data-name="Rectangle 1224" width="0.331" height="35.417" transform="translate(9.666 1.421)" fill="#fff"/>
          <rect id="Rectangle_1225" data-name="Rectangle 1225" width="0.331" height="35.417" transform="translate(9.996 1.421)" fill="#fff"/>
          <rect id="Rectangle_1226" data-name="Rectangle 1226" width="0.331" height="35.417" transform="translate(10.327 1.421)" fill="#fff"/>
          <rect id="Rectangle_1227" data-name="Rectangle 1227" width="0.331" height="35.417" transform="translate(10.657 1.421)" fill="#fff"/>
          <rect id="Rectangle_1228" data-name="Rectangle 1228" width="0.331" height="35.417" transform="translate(10.988 1.421)" fill="#fff"/>
          <rect id="Rectangle_1229" data-name="Rectangle 1229" width="0.331" height="35.417" transform="translate(11.318 1.421)" fill="#fff"/>
          <rect id="Rectangle_1230" data-name="Rectangle 1230" width="0.331" height="35.417" transform="translate(11.649 1.421)" fill="#fff"/>
          <rect id="Rectangle_1231" data-name="Rectangle 1231" width="0.331" height="35.417" transform="translate(11.979 1.421)" fill="#fff"/>
          <rect id="Rectangle_1232" data-name="Rectangle 1232" width="0.331" height="35.417" transform="translate(12.31 1.421)" fill="#fff"/>
          <rect id="Rectangle_1233" data-name="Rectangle 1233" width="0.331" height="35.417" transform="translate(12.641 1.421)" fill="#fff"/>
          <rect id="Rectangle_1234" data-name="Rectangle 1234" width="0.331" height="35.417" transform="translate(12.971 1.421)" fill="#fff"/>
          <rect id="Rectangle_1235" data-name="Rectangle 1235" width="0.331" height="35.417" transform="translate(13.302 1.421)" fill="#fff"/>
          <rect id="Rectangle_1236" data-name="Rectangle 1236" width="0.331" height="35.417" transform="translate(13.632 1.421)" fill="#fff"/>
          <rect id="Rectangle_1237" data-name="Rectangle 1237" width="0.331" height="35.417" transform="translate(13.963 1.421)" fill="#fff"/>
          <rect id="Rectangle_1238" data-name="Rectangle 1238" width="0.331" height="35.417" transform="translate(14.293 1.421)" fill="#fff"/>
          <rect id="Rectangle_1239" data-name="Rectangle 1239" width="0.331" height="35.417" transform="translate(14.624 1.421)" fill="#fff"/>
          <rect id="Rectangle_1240" data-name="Rectangle 1240" width="0.331" height="35.417" transform="translate(14.955 1.421)" fill="#fff"/>
          <rect id="Rectangle_1241" data-name="Rectangle 1241" width="0.331" height="35.417" transform="translate(15.285 1.421)" fill="#fff"/>
          <rect id="Rectangle_1242" data-name="Rectangle 1242" width="0.331" height="35.417" transform="translate(15.616 1.421)" fill="#fff"/>
          <rect id="Rectangle_1243" data-name="Rectangle 1243" width="0.331" height="35.417" transform="translate(15.946 1.421)" fill="#fff"/>
          <rect id="Rectangle_1244" data-name="Rectangle 1244" width="0.331" height="35.417" transform="translate(16.277 1.421)" fill="#fff"/>
          <rect id="Rectangle_1245" data-name="Rectangle 1245" width="0.331" height="35.417" transform="translate(16.607 1.421)" fill="#fff"/>
          <rect id="Rectangle_1246" data-name="Rectangle 1246" width="0.331" height="35.417" transform="translate(16.938 1.421)" fill="#fff"/>
          <rect id="Rectangle_1247" data-name="Rectangle 1247" width="0.331" height="35.417" transform="translate(17.268 1.421)" fill="#fff"/>
          <rect id="Rectangle_1248" data-name="Rectangle 1248" width="0.331" height="35.417" transform="translate(17.599 1.421)" fill="#fff"/>
          <rect id="Rectangle_1249" data-name="Rectangle 1249" width="0.331" height="35.417" transform="translate(17.93 1.421)" fill="#fff"/>
          <rect id="Rectangle_1250" data-name="Rectangle 1250" width="0.331" height="35.417" transform="translate(18.26 1.421)" fill="#fff"/>
          <rect id="Rectangle_1251" data-name="Rectangle 1251" width="0.331" height="35.417" transform="translate(18.591 1.421)" fill="#fff"/>
          <rect id="Rectangle_1252" data-name="Rectangle 1252" width="0.331" height="35.417" transform="translate(18.921 1.421)" fill="#fff"/>
          <rect id="Rectangle_1253" data-name="Rectangle 1253" width="0.331" height="35.417" transform="translate(19.252 1.421)" fill="#fff"/>
          <rect id="Rectangle_1254" data-name="Rectangle 1254" width="0.331" height="35.417" transform="translate(19.582 1.421)" fill="#fff"/>
          <rect id="Rectangle_1255" data-name="Rectangle 1255" width="0.331" height="35.417" transform="translate(19.913 1.421)" fill="#fff"/>
          <rect id="Rectangle_1256" data-name="Rectangle 1256" width="0.331" height="35.417" transform="translate(20.244 1.421)" fill="#fff"/>
          <rect id="Rectangle_1257" data-name="Rectangle 1257" width="0.331" height="35.417" transform="translate(20.574 1.421)" fill="#fff"/>
          <rect id="Rectangle_1258" data-name="Rectangle 1258" width="0.331" height="35.417" transform="translate(20.905 1.421)" fill="#fff"/>
          <rect id="Rectangle_1259" data-name="Rectangle 1259" width="0.331" height="35.417" transform="translate(21.235 1.421)" fill="#fff"/>
          <rect id="Rectangle_1260" data-name="Rectangle 1260" width="0.331" height="35.417" transform="translate(21.566 1.421)" fill="#fff"/>
          <rect id="Rectangle_1261" data-name="Rectangle 1261" width="0.331" height="35.417" transform="translate(21.896 1.421)" fill="#fff"/>
          <rect id="Rectangle_1262" data-name="Rectangle 1262" width="0.331" height="35.417" transform="translate(22.227 1.421)" fill="#fff"/>
          <rect id="Rectangle_1263" data-name="Rectangle 1263" width="0.331" height="35.417" transform="translate(22.557 1.421)" fill="#fff"/>
          <rect id="Rectangle_1264" data-name="Rectangle 1264" width="0.331" height="35.417" transform="translate(22.888 1.421)" fill="#fff"/>
          <rect id="Rectangle_1265" data-name="Rectangle 1265" width="0.331" height="35.417" transform="translate(23.219 1.421)" fill="#fff"/>
          <rect id="Rectangle_1266" data-name="Rectangle 1266" width="0.331" height="35.417" transform="translate(23.549 1.421)" fill="#fff"/>
          <rect id="Rectangle_1267" data-name="Rectangle 1267" width="0.331" height="35.417" transform="translate(23.88 1.421)" fill="#fff"/>
          <rect id="Rectangle_1268" data-name="Rectangle 1268" width="0.331" height="35.417" transform="translate(24.21 1.421)" fill="#fff"/>
          <rect id="Rectangle_1269" data-name="Rectangle 1269" width="0.331" height="35.417" transform="translate(24.541 1.421)" fill="#fff"/>
          <rect id="Rectangle_1270" data-name="Rectangle 1270" width="0.331" height="35.417" transform="translate(24.871 1.421)" fill="#fff"/>
          <rect id="Rectangle_1271" data-name="Rectangle 1271" width="0.331" height="35.417" transform="translate(25.202 1.421)" fill="#fff"/>
          <rect id="Rectangle_1272" data-name="Rectangle 1272" width="0.331" height="35.417" transform="translate(25.533 1.421)" fill="#fff"/>
          <rect id="Rectangle_1273" data-name="Rectangle 1273" width="0.331" height="35.417" transform="translate(25.863 1.421)" fill="#fff"/>
          <rect id="Rectangle_1274" data-name="Rectangle 1274" width="0.331" height="35.417" transform="translate(26.194 1.421)" fill="#fff"/>
          <rect id="Rectangle_1275" data-name="Rectangle 1275" width="0.331" height="35.417" transform="translate(26.524 1.421)" fill="#fff"/>
          <rect id="Rectangle_1276" data-name="Rectangle 1276" width="0.331" height="35.417" transform="translate(26.855 1.421)" fill="#fff"/>
          <rect id="Rectangle_1277" data-name="Rectangle 1277" width="0.331" height="35.417" transform="translate(27.185 1.421)" fill="#fff"/>
          <rect id="Rectangle_1278" data-name="Rectangle 1278" width="0.331" height="35.417" transform="translate(27.516 1.421)" fill="#fff"/>
          <rect id="Rectangle_1279" data-name="Rectangle 1279" width="0.331" height="35.417" transform="translate(27.846 1.421)" fill="#fff"/>
          <rect id="Rectangle_1280" data-name="Rectangle 1280" width="0.331" height="35.417" transform="translate(28.177 1.421)" fill="#fff"/>
          <rect id="Rectangle_1281" data-name="Rectangle 1281" width="0.331" height="35.417" transform="translate(28.508 1.421)" fill="#fff"/>
          <rect id="Rectangle_1282" data-name="Rectangle 1282" width="0.331" height="35.417" transform="translate(28.838 1.421)" fill="#fff"/>
          <rect id="Rectangle_1283" data-name="Rectangle 1283" width="0.331" height="35.417" transform="translate(29.169 1.421)" fill="#fff"/>
          <rect id="Rectangle_1284" data-name="Rectangle 1284" width="0.331" height="35.417" transform="translate(29.499 1.421)" fill="#fff"/>
          <rect id="Rectangle_1285" data-name="Rectangle 1285" width="0.331" height="35.417" transform="translate(29.83 1.421)" fill="#fff"/>
          <rect id="Rectangle_1286" data-name="Rectangle 1286" width="0.331" height="35.417" transform="translate(30.16 1.421)" fill="#fff"/>
          <rect id="Rectangle_1287" data-name="Rectangle 1287" width="0.331" height="35.417" transform="translate(30.491 1.421)" fill="#fff"/>
          <rect id="Rectangle_1288" data-name="Rectangle 1288" width="0.331" height="35.417" transform="translate(30.822 1.421)" fill="#fff"/>
          <rect id="Rectangle_1289" data-name="Rectangle 1289" width="0.331" height="35.417" transform="translate(31.152 1.421)" fill="#fff"/>
          <rect id="Rectangle_1290" data-name="Rectangle 1290" width="0.331" height="35.417" transform="translate(31.483 1.421)" fill="#fff"/>
          <rect id="Rectangle_1291" data-name="Rectangle 1291" width="0.331" height="35.417" transform="translate(31.813 1.421)" fill="#fff"/>
          <rect id="Rectangle_1292" data-name="Rectangle 1292" width="0.331" height="35.417" transform="translate(32.144 1.421)" fill="#fff"/>
          <rect id="Rectangle_1293" data-name="Rectangle 1293" width="0.331" height="35.417" transform="translate(32.474 1.421)" fill="#fff"/>
          <rect id="Rectangle_1294" data-name="Rectangle 1294" width="0.331" height="35.417" transform="translate(32.805 1.421)" fill="#fff"/>
          <rect id="Rectangle_1295" data-name="Rectangle 1295" width="0.331" height="35.417" transform="translate(33.135 1.421)" fill="#fff"/>
          <rect id="Rectangle_1296" data-name="Rectangle 1296" width="0.331" height="35.417" transform="translate(33.466 1.421)" fill="#fff"/>
          <rect id="Rectangle_1297" data-name="Rectangle 1297" width="0.331" height="35.417" transform="translate(33.797 1.421)" fill="#fff"/>
          <rect id="Rectangle_1298" data-name="Rectangle 1298" width="0.331" height="35.417" transform="translate(34.127 1.421)" fill="#fff"/>
          <rect id="Rectangle_1299" data-name="Rectangle 1299" width="0.331" height="35.417" transform="translate(34.458 1.421)" fill="#fff"/>
          <rect id="Rectangle_1300" data-name="Rectangle 1300" width="0.331" height="35.417" transform="translate(34.788 1.421)" fill="#fff"/>
          <rect id="Rectangle_1301" data-name="Rectangle 1301" width="0.331" height="35.417" transform="translate(35.119 1.421)" fill="#fff"/>
          <rect id="Rectangle_1302" data-name="Rectangle 1302" width="0.331" height="35.417" transform="translate(35.449 1.421)" fill="#fff"/>
          <rect id="Rectangle_1303" data-name="Rectangle 1303" width="0.331" height="35.417" transform="translate(35.78 1.421)" fill="#fff"/>
          <rect id="Rectangle_1304" data-name="Rectangle 1304" width="0.727" height="35.417" transform="translate(36.11 1.421)" fill="#fff"/>
          <rect id="Rectangle_1305" data-name="Rectangle 1305" width="0.741" height="38.259" transform="translate(0 0)" fill="#fff"/>
          <rect id="Rectangle_1306" data-name="Rectangle 1306" width="0.331" height="38.259" transform="translate(0.74 0)" fill="#fff"/>
          <rect id="Rectangle_1307" data-name="Rectangle 1307" width="0.331" height="38.259" transform="translate(1.071 0)" fill="#fff"/>
          <rect id="Rectangle_1308" data-name="Rectangle 1308" width="0.331" height="38.259" transform="translate(1.402 0)" fill="#fff"/>
          <rect id="Rectangle_1309" data-name="Rectangle 1309" width="0.331" height="38.259" transform="translate(1.732 0)" fill="#fff"/>
          <rect id="Rectangle_1310" data-name="Rectangle 1310" width="0.331" height="38.259" transform="translate(2.063 0)" fill="#fff"/>
          <rect id="Rectangle_1311" data-name="Rectangle 1311" width="0.331" height="38.259" transform="translate(2.393 0)" fill="#fff"/>
          <rect id="Rectangle_1312" data-name="Rectangle 1312" width="0.331" height="38.259" transform="translate(2.724 0)" fill="#fff"/>
          <rect id="Rectangle_1313" data-name="Rectangle 1313" width="0.331" height="38.259" transform="translate(3.054 0)" fill="#fff"/>
          <rect id="Rectangle_1314" data-name="Rectangle 1314" width="0.331" height="38.259" transform="translate(3.385 0)" fill="#fff"/>
          <rect id="Rectangle_1315" data-name="Rectangle 1315" width="0.331" height="38.259" transform="translate(3.715 0)" fill="#fff"/>
          <rect id="Rectangle_1316" data-name="Rectangle 1316" width="0.331" height="38.259" transform="translate(4.046 0)" fill="#fff"/>
          <rect id="Rectangle_1317" data-name="Rectangle 1317" width="0.331" height="38.259" transform="translate(4.377 0)" fill="#fff"/>
          <rect id="Rectangle_1318" data-name="Rectangle 1318" width="0.331" height="38.259" transform="translate(4.707 0)" fill="#fff"/>
          <rect id="Rectangle_1319" data-name="Rectangle 1319" width="0.331" height="38.259" transform="translate(5.038 0)" fill="#fff"/>
          <rect id="Rectangle_1320" data-name="Rectangle 1320" width="0.331" height="38.259" transform="translate(5.368 0)" fill="#fff"/>
          <rect id="Rectangle_1321" data-name="Rectangle 1321" width="0.331" height="38.259" transform="translate(5.699 0)" fill="#fff"/>
          <rect id="Rectangle_1322" data-name="Rectangle 1322" width="0.331" height="38.259" transform="translate(6.029 0)" fill="#fff"/>
          <rect id="Rectangle_1323" data-name="Rectangle 1323" width="0.331" height="38.259" transform="translate(6.36 0)" fill="#fff"/>
          <rect id="Rectangle_1324" data-name="Rectangle 1324" width="0.331" height="38.259" transform="translate(6.691 0)" fill="#fff"/>
          <rect id="Rectangle_1325" data-name="Rectangle 1325" width="0.331" height="38.259" transform="translate(7.021 0)" fill="#fff"/>
          <rect id="Rectangle_1326" data-name="Rectangle 1326" width="0.331" height="38.259" transform="translate(7.352 0)" fill="#fff"/>
          <rect id="Rectangle_1327" data-name="Rectangle 1327" width="0.331" height="38.259" transform="translate(7.682 0)" fill="#fff"/>
          <rect id="Rectangle_1328" data-name="Rectangle 1328" width="0.331" height="38.259" transform="translate(8.013 0)" fill="#fff"/>
          <rect id="Rectangle_1329" data-name="Rectangle 1329" width="0.331" height="38.259" transform="translate(8.343 0)" fill="#fff"/>
          <rect id="Rectangle_1330" data-name="Rectangle 1330" width="0.331" height="38.259" transform="translate(8.674 0)" fill="#fff"/>
          <rect id="Rectangle_1331" data-name="Rectangle 1331" width="0.331" height="38.259" transform="translate(9.004 0)" fill="#fff"/>
          <rect id="Rectangle_1332" data-name="Rectangle 1332" width="0.331" height="38.259" transform="translate(9.335 0)" fill="#fff"/>
          <rect id="Rectangle_1333" data-name="Rectangle 1333" width="0.331" height="38.259" transform="translate(9.666 0)" fill="#fff"/>
          <rect id="Rectangle_1334" data-name="Rectangle 1334" width="0.331" height="38.259" transform="translate(9.996 0)" fill="#fff"/>
          <rect id="Rectangle_1335" data-name="Rectangle 1335" width="0.331" height="38.259" transform="translate(10.327 0)" fill="#fff"/>
          <rect id="Rectangle_1336" data-name="Rectangle 1336" width="0.331" height="38.259" transform="translate(10.657 0)" fill="#fff"/>
          <rect id="Rectangle_1337" data-name="Rectangle 1337" width="0.331" height="38.259" transform="translate(10.988 0)" fill="#fff"/>
          <rect id="Rectangle_1338" data-name="Rectangle 1338" width="0.331" height="38.259" transform="translate(11.318 0)" fill="#fff"/>
          <rect id="Rectangle_1339" data-name="Rectangle 1339" width="0.331" height="38.259" transform="translate(11.649 0)" fill="#fff"/>
          <rect id="Rectangle_1340" data-name="Rectangle 1340" width="0.331" height="38.259" transform="translate(11.979 0)" fill="#fff"/>
          <rect id="Rectangle_1341" data-name="Rectangle 1341" width="0.331" height="38.259" transform="translate(12.31 0)" fill="#fff"/>
          <rect id="Rectangle_1342" data-name="Rectangle 1342" width="0.331" height="38.259" transform="translate(12.641 0)" fill="#fff"/>
          <rect id="Rectangle_1343" data-name="Rectangle 1343" width="0.331" height="38.259" transform="translate(12.971 0)" fill="#fff"/>
          <rect id="Rectangle_1344" data-name="Rectangle 1344" width="0.331" height="38.259" transform="translate(13.302 0)" fill="#fff"/>
          <rect id="Rectangle_1345" data-name="Rectangle 1345" width="0.331" height="38.259" transform="translate(13.632 0)" fill="#fff"/>
          <rect id="Rectangle_1346" data-name="Rectangle 1346" width="0.331" height="38.259" transform="translate(13.963 0)" fill="#fff"/>
          <rect id="Rectangle_1347" data-name="Rectangle 1347" width="0.331" height="38.259" transform="translate(14.293 0)" fill="#fff"/>
          <rect id="Rectangle_1348" data-name="Rectangle 1348" width="0.331" height="38.259" transform="translate(14.624 0)" fill="#fff"/>
          <rect id="Rectangle_1349" data-name="Rectangle 1349" width="0.331" height="38.259" transform="translate(14.955 0)" fill="#fff"/>
          <rect id="Rectangle_1350" data-name="Rectangle 1350" width="0.331" height="38.259" transform="translate(15.285 0)" fill="#fff"/>
          <rect id="Rectangle_1351" data-name="Rectangle 1351" width="0.331" height="38.259" transform="translate(15.616 0)" fill="#fff"/>
          <rect id="Rectangle_1352" data-name="Rectangle 1352" width="0.331" height="38.259" transform="translate(15.946 0)" fill="#fff"/>
          <rect id="Rectangle_1353" data-name="Rectangle 1353" width="0.331" height="38.259" transform="translate(16.277 0)" fill="#fff"/>
          <rect id="Rectangle_1354" data-name="Rectangle 1354" width="0.331" height="38.259" transform="translate(16.607 0)" fill="#fff"/>
          <rect id="Rectangle_1355" data-name="Rectangle 1355" width="0.331" height="38.259" transform="translate(16.938 0)" fill="#fff"/>
          <rect id="Rectangle_1356" data-name="Rectangle 1356" width="0.331" height="38.259" transform="translate(17.268 0)" fill="#fff"/>
          <rect id="Rectangle_1357" data-name="Rectangle 1357" width="0.331" height="38.259" transform="translate(17.599 0)" fill="#fff"/>
          <rect id="Rectangle_1358" data-name="Rectangle 1358" width="0.331" height="38.259" transform="translate(17.93 0)" fill="#fff"/>
          <rect id="Rectangle_1359" data-name="Rectangle 1359" width="0.331" height="38.259" transform="translate(18.26 0)" fill="#fff"/>
          <rect id="Rectangle_1360" data-name="Rectangle 1360" width="0.331" height="38.259" transform="translate(18.591 0)" fill="#fff"/>
          <rect id="Rectangle_1361" data-name="Rectangle 1361" width="0.331" height="38.259" transform="translate(18.921 0)" fill="#fff"/>
          <rect id="Rectangle_1362" data-name="Rectangle 1362" width="0.331" height="38.259" transform="translate(19.252 0)" fill="#fff"/>
          <rect id="Rectangle_1363" data-name="Rectangle 1363" width="0.331" height="38.259" transform="translate(19.582 0)" fill="#fff"/>
          <rect id="Rectangle_1364" data-name="Rectangle 1364" width="0.331" height="38.259" transform="translate(19.913 0)" fill="#fff"/>
          <rect id="Rectangle_1365" data-name="Rectangle 1365" width="0.331" height="38.259" transform="translate(20.244 0)" fill="#fff"/>
          <rect id="Rectangle_1366" data-name="Rectangle 1366" width="0.331" height="38.259" transform="translate(20.574 0)" fill="#fff"/>
          <rect id="Rectangle_1367" data-name="Rectangle 1367" width="0.331" height="38.259" transform="translate(20.905 0)" fill="#fff"/>
          <rect id="Rectangle_1368" data-name="Rectangle 1368" width="0.331" height="38.259" transform="translate(21.235 0)" fill="#fff"/>
          <rect id="Rectangle_1369" data-name="Rectangle 1369" width="0.331" height="38.259" transform="translate(21.566 0)" fill="#fff"/>
          <rect id="Rectangle_1370" data-name="Rectangle 1370" width="0.331" height="38.259" transform="translate(21.896 0)" fill="#fff"/>
          <rect id="Rectangle_1371" data-name="Rectangle 1371" width="0.331" height="38.259" transform="translate(22.227 0)" fill="#fff"/>
          <rect id="Rectangle_1372" data-name="Rectangle 1372" width="0.331" height="38.259" transform="translate(22.557 0)" fill="#fff"/>
          <rect id="Rectangle_1373" data-name="Rectangle 1373" width="0.331" height="38.259" transform="translate(22.888 0)" fill="#fff"/>
          <rect id="Rectangle_1374" data-name="Rectangle 1374" width="0.331" height="38.259" transform="translate(23.219 0)" fill="#fff"/>
          <rect id="Rectangle_1375" data-name="Rectangle 1375" width="0.331" height="38.259" transform="translate(23.549 0)" fill="#fff"/>
          <rect id="Rectangle_1376" data-name="Rectangle 1376" width="0.331" height="38.259" transform="translate(23.88 0)" fill="#fff"/>
          <rect id="Rectangle_1377" data-name="Rectangle 1377" width="0.331" height="38.259" transform="translate(24.21 0)" fill="#fff"/>
          <rect id="Rectangle_1378" data-name="Rectangle 1378" width="0.331" height="38.259" transform="translate(24.541 0)" fill="#fff"/>
          <rect id="Rectangle_1379" data-name="Rectangle 1379" width="0.331" height="38.259" transform="translate(24.871 0)" fill="#fff"/>
          <rect id="Rectangle_1380" data-name="Rectangle 1380" width="0.331" height="38.259" transform="translate(25.202 0)" fill="#fff"/>
          <rect id="Rectangle_1381" data-name="Rectangle 1381" width="0.331" height="38.259" transform="translate(25.533 0)" fill="#fff"/>
          <rect id="Rectangle_1382" data-name="Rectangle 1382" width="0.331" height="38.259" transform="translate(25.863 0)" fill="#fff"/>
          <rect id="Rectangle_1383" data-name="Rectangle 1383" width="0.331" height="38.259" transform="translate(26.194 0)" fill="#fff"/>
          <rect id="Rectangle_1384" data-name="Rectangle 1384" width="0.331" height="38.259" transform="translate(26.524 0)" fill="#fff"/>
          <rect id="Rectangle_1385" data-name="Rectangle 1385" width="0.331" height="38.259" transform="translate(26.855 0)" fill="#fff"/>
          <rect id="Rectangle_1386" data-name="Rectangle 1386" width="0.331" height="38.259" transform="translate(27.185 0)" fill="#fff"/>
          <rect id="Rectangle_1387" data-name="Rectangle 1387" width="0.331" height="38.259" transform="translate(27.516 0)" fill="#fff"/>
          <rect id="Rectangle_1388" data-name="Rectangle 1388" width="0.331" height="38.259" transform="translate(27.846 0)" fill="#fff"/>
          <rect id="Rectangle_1389" data-name="Rectangle 1389" width="0.331" height="38.259" transform="translate(28.177 0)" fill="#fff"/>
          <rect id="Rectangle_1390" data-name="Rectangle 1390" width="0.331" height="38.259" transform="translate(28.508 0)" fill="#fff"/>
          <rect id="Rectangle_1391" data-name="Rectangle 1391" width="0.331" height="38.259" transform="translate(28.838 0)" fill="#fff"/>
          <rect id="Rectangle_1392" data-name="Rectangle 1392" width="0.331" height="38.259" transform="translate(29.169 0)" fill="#fff"/>
          <rect id="Rectangle_1393" data-name="Rectangle 1393" width="0.331" height="38.259" transform="translate(29.499 0)" fill="#fff"/>
          <rect id="Rectangle_1394" data-name="Rectangle 1394" width="0.331" height="38.259" transform="translate(29.83 0)" fill="#fff"/>
          <rect id="Rectangle_1395" data-name="Rectangle 1395" width="0.331" height="38.259" transform="translate(30.16 0)" fill="#fff"/>
          <rect id="Rectangle_1396" data-name="Rectangle 1396" width="0.331" height="38.259" transform="translate(30.491 0)" fill="#fff"/>
          <rect id="Rectangle_1397" data-name="Rectangle 1397" width="0.331" height="38.259" transform="translate(30.822 0)" fill="#fff"/>
          <rect id="Rectangle_1398" data-name="Rectangle 1398" width="0.331" height="38.259" transform="translate(31.152 0)" fill="#fff"/>
          <rect id="Rectangle_1399" data-name="Rectangle 1399" width="0.331" height="38.259" transform="translate(31.483 0)" fill="#fff"/>
          <rect id="Rectangle_1400" data-name="Rectangle 1400" width="0.331" height="38.259" transform="translate(31.813 0)" fill="#fff"/>
          <rect id="Rectangle_1401" data-name="Rectangle 1401" width="0.331" height="38.259" transform="translate(32.144 0)" fill="#fff"/>
          <rect id="Rectangle_1402" data-name="Rectangle 1402" width="0.331" height="38.259" transform="translate(32.474 0)" fill="#fff"/>
          <rect id="Rectangle_1403" data-name="Rectangle 1403" width="0.331" height="38.259" transform="translate(32.805 0)" fill="#fff"/>
          <rect id="Rectangle_1404" data-name="Rectangle 1404" width="0.331" height="38.259" transform="translate(33.135 0)" fill="#fff"/>
          <rect id="Rectangle_1405" data-name="Rectangle 1405" width="0.331" height="38.259" transform="translate(33.466 0)" fill="#fff"/>
          <rect id="Rectangle_1406" data-name="Rectangle 1406" width="0.331" height="38.259" transform="translate(33.797 0)" fill="#fff"/>
          <rect id="Rectangle_1407" data-name="Rectangle 1407" width="0.331" height="38.259" transform="translate(34.127 0)" fill="#fff"/>
          <rect id="Rectangle_1408" data-name="Rectangle 1408" width="0.331" height="38.259" transform="translate(34.458 0)" fill="#fff"/>
          <rect id="Rectangle_1409" data-name="Rectangle 1409" width="0.331" height="38.259" transform="translate(34.788 0)" fill="#fff"/>
          <rect id="Rectangle_1410" data-name="Rectangle 1410" width="0.331" height="38.259" transform="translate(35.119 0)" fill="#fff"/>
          <rect id="Rectangle_1411" data-name="Rectangle 1411" width="0.331" height="38.259" transform="translate(35.449 0)" fill="#fff"/>
          <rect id="Rectangle_1412" data-name="Rectangle 1412" width="0.331" height="38.259" transform="translate(35.78 0)" fill="#fff"/>
          <rect id="Rectangle_1413" data-name="Rectangle 1413" width="2.149" height="38.259" transform="translate(36.11 0)" fill="#fff"/>
        </g>
      </g>
    </g>
  </g>
  <g id="Group_30" data-name="Group 30" transform="translate(8.596 11.232)">
    <g id="Group_29" data-name="Group 29">
      <path id="Path_15" data-name="Path 15" d="M275.775,155.722H263.018a4.154,4.154,0,0,0-4.155,4.155v7.486a4.154,4.154,0,0,0,4.155,4.155h12.758a4.154,4.154,0,0,0,4.155-4.155v-7.486A4.154,4.154,0,0,0,275.775,155.722ZM266.8,167.084v-6.928a.705.705,0,0,1,1.067-.605l5.79,3.464a.7.7,0,0,1,0,1.21l-5.79,3.465A.705.705,0,0,1,266.8,167.084Z" transform="translate(-258.863 -155.722)" fill="#fff"/>
      <g id="Group_28" data-name="Group 28" clip-path="url(#clip-path-2)">
        <rect id="Rectangle_1414" data-name="Rectangle 1414" width="0.227" height="8.701" transform="translate(7.938 3.548)" fill="#fff"/>
        <rect id="Rectangle_1415" data-name="Rectangle 1415" width="0.357" height="8.701" transform="translate(8.166 3.548)" fill="#fff"/>
        <rect id="Rectangle_1416" data-name="Rectangle 1416" width="0.357" height="8.701" transform="translate(8.523 3.548)" fill="#fff"/>
        <rect id="Rectangle_1417" data-name="Rectangle 1417" width="0.357" height="8.701" transform="translate(8.88 3.548)" fill="#fff"/>
        <rect id="Rectangle_1418" data-name="Rectangle 1418" width="0.357" height="8.701" transform="translate(9.237 3.548)" fill="#fff"/>
        <rect id="Rectangle_1419" data-name="Rectangle 1419" width="0.357" height="8.701" transform="translate(9.594 3.548)" fill="#fff"/>
        <rect id="Rectangle_1420" data-name="Rectangle 1420" width="0.357" height="8.701" transform="translate(9.952 3.548)" fill="#fff"/>
        <rect id="Rectangle_1421" data-name="Rectangle 1421" width="0.357" height="8.701" transform="translate(10.309 3.548)" fill="#fff"/>
        <rect id="Rectangle_1422" data-name="Rectangle 1422" width="0.357" height="8.701" transform="translate(10.666 3.548)" fill="#fff"/>
        <rect id="Rectangle_1423" data-name="Rectangle 1423" width="0.357" height="8.701" transform="translate(11.023 3.548)" fill="#fff"/>
        <rect id="Rectangle_1424" data-name="Rectangle 1424" width="0.357" height="8.701" transform="translate(11.38 3.548)" fill="#fff"/>
        <rect id="Rectangle_1425" data-name="Rectangle 1425" width="0.357" height="8.701" transform="translate(11.737 3.548)" fill="#fff"/>
        <rect id="Rectangle_1426" data-name="Rectangle 1426" width="0.357" height="8.701" transform="translate(12.094 3.548)" fill="#fff"/>
        <rect id="Rectangle_1427" data-name="Rectangle 1427" width="0.357" height="8.701" transform="translate(12.451 3.548)" fill="#fff"/>
        <rect id="Rectangle_1428" data-name="Rectangle 1428" width="0.357" height="8.701" transform="translate(12.809 3.548)" fill="#fff"/>
        <rect id="Rectangle_1429" data-name="Rectangle 1429" width="0.357" height="8.701" transform="translate(13.166 3.548)" fill="#fff"/>
        <rect id="Rectangle_1430" data-name="Rectangle 1430" width="0.357" height="8.701" transform="translate(13.523 3.548)" fill="#fff"/>
        <rect id="Rectangle_1431" data-name="Rectangle 1431" width="0.357" height="8.701" transform="translate(13.88 3.548)" fill="#fff"/>
        <rect id="Rectangle_1432" data-name="Rectangle 1432" width="0.357" height="8.701" transform="translate(14.237 3.548)" fill="#fff"/>
        <rect id="Rectangle_1433" data-name="Rectangle 1433" width="0.357" height="8.701" transform="translate(14.594 3.548)" fill="#fff"/>
        <rect id="Rectangle_1434" data-name="Rectangle 1434" width="0.301" height="8.701" transform="translate(14.951 3.548)" fill="#fff"/>
        <rect id="Rectangle_1435" data-name="Rectangle 1435" width="0.309" height="15.795" transform="translate(0 0)" fill="#fff"/>
        <rect id="Rectangle_1436" data-name="Rectangle 1436" width="0.357" height="15.795" transform="translate(0.309 0)" fill="#fff"/>
        <rect id="Rectangle_1437" data-name="Rectangle 1437" width="0.357" height="15.795" transform="translate(0.666 0)" fill="#fff"/>
        <rect id="Rectangle_1438" data-name="Rectangle 1438" width="0.357" height="15.795" transform="translate(1.023 0)" fill="#fff"/>
        <rect id="Rectangle_1439" data-name="Rectangle 1439" width="0.357" height="15.795" transform="translate(1.38 0)" fill="#fff"/>
        <rect id="Rectangle_1440" data-name="Rectangle 1440" width="0.357" height="15.795" transform="translate(1.737 0)" fill="#fff"/>
        <rect id="Rectangle_1441" data-name="Rectangle 1441" width="0.357" height="15.795" transform="translate(2.095 0)" fill="#fff"/>
        <rect id="Rectangle_1442" data-name="Rectangle 1442" width="0.357" height="15.795" transform="translate(2.452 0)" fill="#fff"/>
        <rect id="Rectangle_1443" data-name="Rectangle 1443" width="0.357" height="15.795" transform="translate(2.809 0)" fill="#fff"/>
        <rect id="Rectangle_1444" data-name="Rectangle 1444" width="0.357" height="15.795" transform="translate(3.166 0)" fill="#fff"/>
        <rect id="Rectangle_1445" data-name="Rectangle 1445" width="0.357" height="15.795" transform="translate(3.523 0)" fill="#fff"/>
        <rect id="Rectangle_1446" data-name="Rectangle 1446" width="0.357" height="15.795" transform="translate(3.88 0)" fill="#fff"/>
        <rect id="Rectangle_1447" data-name="Rectangle 1447" width="0.357" height="15.795" transform="translate(4.237 0)" fill="#fff"/>
        <rect id="Rectangle_1448" data-name="Rectangle 1448" width="0.357" height="15.795" transform="translate(4.595 0)" fill="#fff"/>
        <rect id="Rectangle_1449" data-name="Rectangle 1449" width="0.357" height="15.795" transform="translate(4.952 0)" fill="#fff"/>
        <rect id="Rectangle_1450" data-name="Rectangle 1450" width="0.357" height="15.795" transform="translate(5.309 0)" fill="#fff"/>
        <rect id="Rectangle_1451" data-name="Rectangle 1451" width="0.357" height="15.795" transform="translate(5.666 0)" fill="#fff"/>
        <rect id="Rectangle_1452" data-name="Rectangle 1452" width="0.357" height="15.795" transform="translate(6.023 0)" fill="#fff"/>
        <rect id="Rectangle_1453" data-name="Rectangle 1453" width="0.357" height="15.795" transform="translate(6.38 0)" fill="#fff"/>
        <rect id="Rectangle_1454" data-name="Rectangle 1454" width="0.357" height="15.795" transform="translate(6.737 0)" fill="#fff"/>
        <rect id="Rectangle_1455" data-name="Rectangle 1455" width="0.357" height="15.795" transform="translate(7.094 0)" fill="#fff"/>
        <rect id="Rectangle_1456" data-name="Rectangle 1456" width="0.357" height="15.795" transform="translate(7.452 0)" fill="#fff"/>
        <rect id="Rectangle_1457" data-name="Rectangle 1457" width="0.357" height="15.795" transform="translate(7.809 0)" fill="#fff"/>
        <rect id="Rectangle_1458" data-name="Rectangle 1458" width="0.357" height="15.795" transform="translate(8.166 0)" fill="#fff"/>
        <rect id="Rectangle_1459" data-name="Rectangle 1459" width="0.357" height="15.795" transform="translate(8.523 0)" fill="#fff"/>
        <rect id="Rectangle_1460" data-name="Rectangle 1460" width="0.357" height="15.795" transform="translate(8.88 0)" fill="#fff"/>
        <rect id="Rectangle_1461" data-name="Rectangle 1461" width="0.357" height="15.795" transform="translate(9.237 0)" fill="#fff"/>
        <rect id="Rectangle_1462" data-name="Rectangle 1462" width="0.357" height="15.795" transform="translate(9.594 0)" fill="#fff"/>
        <rect id="Rectangle_1463" data-name="Rectangle 1463" width="0.357" height="15.795" transform="translate(9.952 0)" fill="#fff"/>
        <rect id="Rectangle_1464" data-name="Rectangle 1464" width="0.357" height="15.795" transform="translate(10.309 0)" fill="#fff"/>
        <rect id="Rectangle_1465" data-name="Rectangle 1465" width="0.357" height="15.795" transform="translate(10.666 0)" fill="#fff"/>
        <rect id="Rectangle_1466" data-name="Rectangle 1466" width="0.357" height="15.795" transform="translate(11.023 0)" fill="#fff"/>
        <rect id="Rectangle_1467" data-name="Rectangle 1467" width="0.357" height="15.795" transform="translate(11.38 0)" fill="#fff"/>
        <rect id="Rectangle_1468" data-name="Rectangle 1468" width="0.357" height="15.795" transform="translate(11.737 0)" fill="#fff"/>
        <rect id="Rectangle_1469" data-name="Rectangle 1469" width="0.357" height="15.795" transform="translate(12.094 0)" fill="#fff"/>
        <rect id="Rectangle_1470" data-name="Rectangle 1470" width="0.357" height="15.795" transform="translate(12.451 0)" fill="#fff"/>
        <rect id="Rectangle_1471" data-name="Rectangle 1471" width="0.357" height="15.795" transform="translate(12.809 0)" fill="#fff"/>
        <rect id="Rectangle_1472" data-name="Rectangle 1472" width="0.357" height="15.795" transform="translate(13.166 0)" fill="#fff"/>
        <rect id="Rectangle_1473" data-name="Rectangle 1473" width="0.357" height="15.795" transform="translate(13.523 0)" fill="#fff"/>
        <rect id="Rectangle_1474" data-name="Rectangle 1474" width="0.357" height="15.795" transform="translate(13.88 0)" fill="#fff"/>
        <rect id="Rectangle_1475" data-name="Rectangle 1475" width="0.357" height="15.795" transform="translate(14.237 0)" fill="#fff"/>
        <rect id="Rectangle_1476" data-name="Rectangle 1476" width="0.357" height="15.795" transform="translate(14.594 0)" fill="#fff"/>
        <rect id="Rectangle_1477" data-name="Rectangle 1477" width="0.357" height="15.795" transform="translate(14.951 0)" fill="#fff"/>
        <rect id="Rectangle_1478" data-name="Rectangle 1478" width="0.357" height="15.795" transform="translate(15.309 0)" fill="#fff"/>
        <rect id="Rectangle_1479" data-name="Rectangle 1479" width="0.357" height="15.795" transform="translate(15.666 0)" fill="#fff"/>
        <rect id="Rectangle_1480" data-name="Rectangle 1480" width="0.357" height="15.795" transform="translate(16.023 0)" fill="#fff"/>
        <rect id="Rectangle_1481" data-name="Rectangle 1481" width="0.357" height="15.795" transform="translate(16.38 0)" fill="#fff"/>
        <rect id="Rectangle_1482" data-name="Rectangle 1482" width="0.357" height="15.795" transform="translate(16.737 0)" fill="#fff"/>
        <rect id="Rectangle_1483" data-name="Rectangle 1483" width="0.357" height="15.795" transform="translate(17.094 0)" fill="#fff"/>
        <rect id="Rectangle_1484" data-name="Rectangle 1484" width="0.357" height="15.795" transform="translate(17.451 0)" fill="#fff"/>
        <rect id="Rectangle_1485" data-name="Rectangle 1485" width="0.357" height="15.795" transform="translate(17.808 0)" fill="#fff"/>
        <rect id="Rectangle_1486" data-name="Rectangle 1486" width="0.357" height="15.795" transform="translate(18.166 0)" fill="#fff"/>
        <rect id="Rectangle_1487" data-name="Rectangle 1487" width="0.357" height="15.795" transform="translate(18.523 0)" fill="#fff"/>
        <rect id="Rectangle_1488" data-name="Rectangle 1488" width="0.357" height="15.795" transform="translate(18.88 0)" fill="#fff"/>
        <rect id="Rectangle_1489" data-name="Rectangle 1489" width="0.357" height="15.795" transform="translate(19.237 0)" fill="#fff"/>
        <rect id="Rectangle_1490" data-name="Rectangle 1490" width="0.357" height="15.795" transform="translate(19.594 0)" fill="#fff"/>
        <rect id="Rectangle_1491" data-name="Rectangle 1491" width="0.357" height="15.795" transform="translate(19.951 0)" fill="#fff"/>
        <rect id="Rectangle_1492" data-name="Rectangle 1492" width="0.357" height="15.795" transform="translate(20.308 0)" fill="#fff"/>
        <rect id="Rectangle_1493" data-name="Rectangle 1493" width="0.357" height="15.795" transform="translate(20.666 0)" fill="#fff"/>
        <rect id="Rectangle_1494" data-name="Rectangle 1494" width="0.044" height="15.795" transform="translate(21.023 0)" fill="#fff"/>
      </g>
    </g>
  </g>
</svg>
